/* XPM */
static char *result[] = {
/* columns rows colors chars-per-pixel */
"100 100 88 1 ",
"  c #030304",
". c #00000C",
"X c #0B0B0B",
"o c #000014",
"O c #0B0B13",
"+ c #00001D",
"@ c #0B0B1B",
"# c #111111",
"$ c #141419",
"% c #1C1C1C",
"& c #000023",
"* c #0E0E25",
"= c #00002C",
"- c #111124",
"; c #1E1E26",
": c #13132B",
"> c #1E1E2A",
", c #000033",
"< c #0D0D31",
"1 c #00003C",
"2 c #0A0A3A",
"3 c #1B1B33",
"4 c #12123C",
"5 c #19193D",
"6 c #212121",
"7 c #2D2D2D",
"8 c #212132",
"9 c #212138",
"0 c gray21",
"q c gray22",
"w c #000043",
"e c #0B0B43",
"r c #00004C",
"t c #0B0B4B",
"y c #131342",
"u c #181847",
"i c #15154C",
"p c #000054",
"a c #0A0A54",
"s c #00005B",
"d c #0E0E5D",
"f c #131354",
"g c #1C1C55",
"h c #11115D",
"j c #1B1B5B",
"k c #2E2E46",
"l c #232352",
"z c #3B3B56",
"x c #3B3B58",
"c c #000064",
"v c #0E0E65",
"b c #00006C",
"n c #0C0C6B",
"m c #111162",
"M c #1C1C60",
"N c #111169",
"B c #000073",
"V c #0C0C73",
"C c #00007C",
"Z c #0C0C79",
"A c #1D1D73",
"S c #2D2D66",
"D c #2D2D6B",
"F c #333360",
"G c #3B3B63",
"H c #33336E",
"J c #2D2D74",
"K c #474747",
"L c #43434D",
"P c gray33",
"I c #000084",
"U c #0B0B81",
"Y c #00008B",
"T c #0A0A8D",
"R c #010193",
"E c #00009B",
"W c #2D2D81",
"Q c #2D2D88",
"! c #0000A3",
"~ c #0000AC",
"^ c #0000B3",
"/ c #0000BB",
"( c #0000C3",
") c #0000CA",
"_ c #0000D3",
"` c #0101DA",
"' c #1919E6",
"] c #2222ED",
/* pixels */
"qgBCCCCCCCCCCCCCCCCCCCCCCCCCCCCCCBgqqMYIYIYYIYYYIYIYIYYIYIYIYIYYYIYYIYIYIIYIIYIIIlqqjBCCCCICCCCCCBu7",
"7gIYRYYYYRYYRYYRYYRYYRYYRYRYRYYYYIg77ME!E!E!!EE!!EE!!EE!!!!EE!!EE!!EE!!E!!E!!E!!!g77mRRRRRRRRRRRRYj6",
"%h!!!!!!!!!!!!!!E!!!!!!!!E!!!EE!!Ef%6V/////////////^/^//////^//^////////////////^f%6V~~^~~~^^~^~~~d%",
"Xp!!!!RR!RY!!!ERYREEYYEERYR!RICCBb,#%N/^~//~YE~/~EIIIEER!!~ERYYR!^/~!RE!~///^~!RC<#%V^/~!!!!~^^!EYwX",
" r!!ERYRERYEERYYYREEICRERIIRICBbbs&X%N/^^^~EIEE!ERbbBCCCYE!EIBBIYEERYIIIYE~~EYYCB&X6V^/~!EEE!~~!RB, ",
" r!EYCIYEEERYCCY!EE!CBREYIBbBCCBbc= %N//~!RRRRYBIYccbsppbIEERbcbbbcbbbssbCIICbccb&X%V^~~!!RCYE!!Rs& ",
" rERRRIY^/^EYCCIYRRRICICBcbCBbcccc=X%<1w1,,,,,=&=,&&&+++==,1,&&=&&&&&=++&====&&&&.X%V~~~~^~!~!!RIB, ",
" r!YYEYR((/RICCCCREYYYICbcbCBbssps& %:=,,,,,,,,,=,=,,,,,,,,,,,=,,,=oXXXXXXXXXXXXXX#6V~~~~///!ERIBB, ",
" r!YICR~()^BBCCCIR!RERRYIBbBCBsppw+ %hEEEEEEREEEEEEEEEREEEEEEEEEEERy%66%%6%6%%%%%%66V^/^!~~!YICBcs& ",
" r!ERY!^//~RYRRYRE!EEEEICBbbccsccp&X%d!~^^^~~!!EE!~!EE!~!E!!~~^~!!E2#6fnnnnnnvvdt>;6V~!!!!EYIIIbcs= ",
" r!EER!~~~!!!!RRR!!!EERIBBbcsscccs&X%v!///(//~!EE!^~ER!~EEE!~//^~!E=X6V!!!!EERRIc:%6V~EEEERCIIYBbc= ",
" r!!EE!~~^~!ERICBR!!ERYYICbcccsrrr+ %m!^//__(/~!~/~!REEE~~~~!~!!EEE,X6VEEEEYRRIBc=X%V~ERE!RBIYIICb= ",
" rEEEYR!~~!RRRICCYYYYYYIICBbbbspw1oX%d!~/()))/!~~^!~!EER!!R!!RR!!RY=X%VEEERRYYIBc+X%V~~!EERYRRYYCp& ",
" r!EYCYE!!EYYRYYECbbCIIIIbBCCBcspw+ %m~~/(//(!E~!!!~^!EE!RIYRCYREYB&X;V!ERERICBBs&X%V/^~EEE!!EYIbr+ ",
" r!RYIYR!YIIIIREECbscbbBBbBCCCBcrw+X%h!~^/^~!EEE!~!!~!!!ERICBCCIICc+X6V!!ERICCccs&X6V^RIYRE!!!RBsw+ ",
" rEYIYYREYCCCY!!!IbcccscbcbBCCCcpw+ %v!^^~~~!ERE!^~^~!!!YICBBCCCBcs+X6V!!ERIIYBcp+X%Z~IYEEEREEEbp1+ ",
" wRIIYREYYIBIE!EEIBbbcssccccBBCcrwoX%m!//~^~~!EE!^///!!!CccCIICBbsp+X%V!!ERCY!Ibp&X%Z~YE/!RCYRRBpw+ ",
" rRYYRYICRRICBICBBBcsscbbppspppssw+ %m!^^!~~^~!~^^///~~!CccBCRIbbpwoX6VEYYYYYIbsp+X%Z/~EYYCbBCICcw+ ",
" wRYYRICBYRYCbBbcbBbcspbBpprrwwppw+X%v~/~!!!~~^!!~^^~^~!IBBBCRCsssroX%VEIIYRIBcss&X%Z/~YBBBbcbCCbw+ ",
" wRIYEIBcCIYIBbbCbbCbswsBbsw111ssw+ %d!~~!!!E~^EEE!!^^~!EREICCbssss+X6VEYIYYCBBbc&X6Z~IBbbbCbbCCbr+ ",
" wRYYIICBBBBbcccbBBbbcsppppsrrpspw+ %d!~/)(~YREEERRYRRYYYYEYICbcssroX6n!ERYYCBBbc&X%Z~YCBBbcscccsr+ ",
" rERYICBBBbbccsssccscssr1wpsrrsprwoX%v!^(`)^YYYRRERICCCIIYRYCCBccp1oX%V!ERYYCbbcs&X6hCcsspr1ww1w1=o ",
" wRIIRBcbbbcbBcprwwwwrr1w11r11r1w1+ %v!^(()^YIYYE!!RCIIIIIYCBCbcsp1.X;VEIYE!Csspp+X%@o....... .X    ",
" +r1wr,==,,=,1,=++++++++++++++++++.X%m!////!RYIIR!!ERYYIYIBbbCbcsr1oX6VERREERCcss+X%#############O#X",
"+&&+&+&&+++++++++++++++. +&+&++++++@$m!/~!!ERRYYE!!!!YYYRIbcbBbspr1oX%V!!!!EEEbcc&X%>35333>%35u53955",
"IYERYIYYIYIIYIIYRIIYIIIw+BYRYYIYICCcop!~~E!EYRE!!!!!!YIREYCCBcsprw1oX6nE!EE!ERCcc&X6mTTYYTpOB!TE!!T!",
"~^/~!!~~~~~!EE!!~RE!!ERw&R^~~~^~!YEI+p!~!E!!E!EE!!!!EYICIICbsrpsrr1.X%nEERYYYYBbs&X%n!~!RRp.I///^^((",
"//~!EEE!//~!RYE!EYYEEYI1+Y^^!!//!IER+p!!!!!~/~!RE!!!EYCcbBCswwpcsr1oX6nREYBbBCBbp+X%n~~EYCr.I//~~^^/",
"//~!EERR!~!RIIREEIIIRRRw&Y^/^^^!ECYbop!~!E!~/~!YYIRYYBBBBCBsw1pcrr1oX6nRRCcssccsr+X%n~~~!Ir.C/~~~^^^",
"/^~EE!EEEEEIICYRRICCYYYw&R^///^ERICs.p!~~E!~/!RRICIICbbCBbcprrssrw1oX%nRYBsssssp1oX6n!!ERC1.I/~^^~~^",
"~~!EE~^~EERCCCIYEICCCCC,+R//~~~!RECr.p!~~!!!!RY!YCCbcBBbssspscccpr1oX;nRIbscsspr1oX%nEYIBs,.I////^~~",
"!ERR!^/~~RICIYYYIYIcBCC1&Y^/!ERRRECr.p!~!!!EERREYCBcsccbssscssprrr1oX%nRCbsssprrwoX%nRBbbs,.I///^^^^",
"!EYRE~^//RCIYRYIBICsBCC,&Y^^!RCYRYBro1BBBBbcbbcbsprw1rwr11rwww,====.X%tcsrr111,==o #tcr1w1=OT//^~~~!",
"!!!RYR~/_EIRYCCBccbBCCC1&R!E^!CCICbr. ...... ....                   X%O .           ..  . X>T//~~!EE",
"~!RIIRE~/EYYICYCcbbBbcc,+R!E!RbCCCbr.X#####%#######################%%;%O####2cccccccbccba*%;T/~~!EEE",
"^EYIIYRREEYIIIRCcBBCbss&&Y~EEIbBBBcr.#;33u5u5u555u5yu53ly5u5u55y55uu5553u>%;m~//~/^~~~~~R4%>T^!!EERR",
"~~EYYRYYEYIRRRICBCBcBbs=&R^^!YIBcssr.O>UT!!TEEERR!EET!T!EEERR!EEREETERYTTf%6h^//^//!!~!!I=#;T/~!EEER",
"^~!ERYRREYYRERIBBBBsccs=+Y~/RYICBscr.#3T^/^~~^^/^^^^^^~^~~/^~R!~^^/^~EERIe#%m^((~((/~!ERC&#;T//!ERRE",
"^^~EYY!!EEERRYIICBbssss=+Y~~YCIICcsro#3R^/^~!/(((/^//^~^~~/~!TT~////~IRYs= %m^((//()/!EYB+X>T//!EREE",
"~~!RYCYR~~ECCIYYIICbsss=+IRYBbCBbssr.#3T^/~~~/)_`_((__(!^^~~~~^/~~!~!EYCs=X%m^/((()(^ERIb+X>U/^^^!!!",
"~!EYIIYE~^!YIIYIYIIBssc=+IYCcccccssr.#3R^/~!^(_```()``)//~RE!E!!!ERRE!Ics=X#m^///((/!ERIcoX>T////!!!",
"!!RIIYE!^~~!ERIIIYCbcsc=+BIBspppppsr.#3T~^~~/(__`_()``__/!IREICIERCCI!Bsp& %m~^~!//~RYEIp+X>T////!!!",
"~!REEREE~~~!YBCBBBBBcss= &=&++o++++o O3R^^/^//()_)^~/)__^!EYICCCCYRIIIbps&X%m^//!~~!!ERCsoX8T////~~~",
"~!R!!EEEE~~!IbBBbbbbsrp& XXXXXXXXXXXX%3T^///^~^///~!~()(^!!TCICCCIRCbBcss= %m^(/~~!!ERYBsoO6T/^/^^^~",
"!RIYR!!!EE!!Icbcssssr1w+ %%6%6%;%666%63T~^//~~~^~!!!!/^!~!!YIYIYCCCcssssc=X%m^())^!!RYIBs+X6T/!!!//~",
"!ERYR!!!EEERCbbcscccprp& %uZZZZZVVVm>63R~~~^/^~ERR!~^^!YE!!YCIYIICBbccsss= $m^(((~EEERRCpoX8T/!!!/~^",
"!ERYRE!!!EYCBbcspsccsps=X%m~^~!~~EEI:%3T~!~~/^!YYYE~/~ECR!!RIIIYYCbbBbcsp&X%m^/((!EEE!!CroX>T/~!!~~!",
"ERYRRYE!!YCbccssssscrrs= %m^~!YE!ERbo#3T//^^//!YYYE~~!RCE!!!RCCIIBsbBBbsr+ %m~//)~EREE!CroX6T//!EEYI",
"ERIYYIYRRIBccccbbbbcrrr&X%v~~!REEYRBo#3T^///^^~!EEE!!RICIR!!EBBbBcscbBbcr+ %m^~^/ER!!E!IpoO>T^!RRRRY",
"RRYYYCIIIICccbbBCCBcrww+ %m~!!!ERIYboO3T///~E!~~^~E!!YCCCIRERBbscspssbbsw+ %m^^~~RR^~!!Ip+X>T~YIYRRR",
"RRYEERIBCCCBbcbBCCBcsrw+ %m~!!ERIBbpo#3R^/~EIE~~^~!!EICBCBBBBBbbsp1rrspr1+ %m~~//ER~~~EIpoX6T~YYIICI",
"EEREEYICCCbbcscccBbcspw+ %m^~ERRRCbr.#3T~~~EERE!~!!ERCBBCBcbbBbbcp11rsprw+ %m~~/)!RE!!ECpoX;T^ERICCC",
"RE!ERYIICBcccpprpcbcspw+ %m^^!Y!EIbr.#3R~!!~/RY!!EEYCbBCCBbccbbbcprrrccsw+ %h~~~(~EYYRRBroX8T//RCIIC",
"IYERRIICCBCBcprrrssscpw+ %m~~~!YCCbr.#3TEY~!YRE!RIICBbBCCCBbcbcssspsccprw+ %m^//~~!RCbCbpoO6T^~ERRYR",
"CIRRYICCCCCCbppppppsssr&X%h^^~^RCbcr.#3R!Y~!CR!!YBBbbccCCCCBccsssscsssrrw+X%m~(/!!EYCBbbpoX6T/!!!ERR",
"CIIYICBBCCCCbssscsspsps= %m~~^~~Yspw.#3T~!/!IR!!YbbccscCCCCbsspsspprrrrrw+ %m^(/!EYIYRBcroO>T^!!EEYY",
"CIICBBCBbBCCbssssrrssss& %m^!!EIBCbr.O3T~!RRR!EYBssssssbbbbccsprrrrwwwrww+ %m^(/!RIYRRCbpoX>T^E!!ERC",
"CIYBbbBBcBBBcsssrrrpspp& %m~ERECBCbr.#>nCbscBBbsrw1w11wrrrwrw1,==,=======o %h~//!YIIYYCBpo#>T~EEEEYC",
"CIRIBcBBcbbsssrwwprww1w+ %m~EEE!Rcsr.#$O..... .        .                  X%h!^~!IBbBCCBpoX>T~ERYYIC",
"CIYYICBBBBbsssrrwppwrrw+ %m~~ER!EBbr.#%#####################O##############%m!~~~EYBbbbsroX8T/~RIYIC",
"CIYRYICBCBbcspprwppwrrr+X%h~^!YEEIcr.X635553u355555555553u555355555355u35>66h!~^~~EIBscp,oX>T/^EYIIC",
"CYRYICbbBCBbswww1rw1ww1+ %m^~!IYCscro#3ZTRRRTRRTRRTRRRTRRTRRRRTRTRRRRRTRRf6%h!~~!^/!YBcp1.X6T^EEYIIY",
"1wrrw11,,111=&++&++++&&. %m~^ECIBssr.#3T~^^^^~~^~~~!!!!!!!!!!!!EERR!~E!!Rt#%h!/^!~^~RCcp,.X;tprrr11r",
"        ....o.ooooooo.. X%m^^ECCBcpr.X3T~///(//////~!!~~!!!!!!EEIII!~RERI,X%h!//!!!/ECsr1.X;Oooooo  ",
"%%%$%%#-wrrppscbbbccspp<%%h~~ECCCBcw.#3R^(((((/~!~^~^///!EE!!!ERIIIYYYRRC1 %d!~!!!!RYCcr,.X6dbBBbb= ",
"%3ffhhmnCIIYYREEEEEERYYi66h!~EICCCbr.X3T^/())(/~!~~^^///EYYRRRREYRRYYYYIC,X%h!^~!EYCCbsr,oX>nREYII1 ",
"6fE!~~/////////////////N%6h!!EYCCCbr.#3T^/((()//^^^~~///YCCCCCR!!!!ERRYBc=X#h!//EYCBcpsr1oX>VRRICC, ",
"6h!~////////^~^//~~~~^/sO%h!!ERBcbbr.#3R^/(((/())(/~^^~YICCCCCIYRRYIICYIb= %h!/!RCBccscp,.X6VRICBB, ",
"6h!^////(((^~~^//~!!~~/p %h!!EYbsscr.#3R//////(___(~E!EIICCCCBCCYYCCCBIIc=X%h!~ECBbbsscp1.X;VRCBBb= ",
"6h!//~~/__)//////!E!///p %h!ERIbsppr.X3T^///~/(____~IE!EICCBBBbBIICCCCCBb= %h!!RbbcBcssr,oX;VYBBBs= ",
"6m~///^/___/~!!~~~^~~~^pX%:w1,,=+&++ O3T^^/^^//()__/!!!ERICBbBbbBbcBCCCCc=X#fRYICcsssssr1.X>nIBCbs& ",
"6N//^/~/))(/!EEE!^//EE!r %# XX XX XXX#3I~~^/^^^^(_)(/~!!!RICBBbccccBBBbbc= %yccssrwwwwr1&.X;nICbcs= ",
"6m/~~~~~^/^~!EREE^/!RYY1 %6%66%%%%%%;63T!!~/(~EE~/~^/~!!!!!YCCbccbCbcsprp& %$.... ... .X. X;nCBcsc= ",
"6N//^^!EE!~^~EERR~~^~!Er %uVVVNmvvmf;6>T!!/((~EE!~~~^!!!RYYYYIBbcbbcsprrw& %%#############%65ty44y@ ",
"6N///!EER!~~!!!EE!~~^^!r %m/^^/!!!EZ:63T!~(((~ERRE~~!!~!YCCYRICbcccsssrw1+ %>53535l33595355l595559@ ",
"6N//^E!!^^~RE!~~~~!YE!!r %m/RE/EYERbo#3U~/////~EEE////^!YCCCICBccccsppr1w+ %jTERERTE!!!E!E!T!E!!EEr ",
"6N///!~^~!EEEE~!ERRRRE!r %m/E!/!EEYcoX>T~/^~^^~!!!/////~EYCCIBbscccsscprr+ %h~^~~~~^//^//^~!^/^^~!r ",
";m/////^~RR/!R!ECCIERR!r %N/~!~~!EIcoO3I~~~!!~~~~^//////~EIIIBcscccccBcpr& %m^~~!~~^^~~~~~EY~^!!RI, ",
"6N/^^/~!!E!/^!ERCcbIRE!rX%N//!IEEICs.#3T~/~!~!!E!~////(/~!EEYbspssscbbbbc=X%m~~~~/))/^^^~EEE!~!ERC, ",
"6m/~~~!E~////!EYIbbCR!!r %m//~YEECCco#>T~/^~!!!!!E!^////~!!!Rbsspssccccss= %m~~^^)__//^~~ERE!!!TYB, ",
"6m//!ER!/_`/~!YR!YCCR!!r %N/^~!!EIRCo#3T~///!!~/EYI!////~!!!EBcspccsprrrr& %m^///)_))(^~~RYYEEEIBb= ",
"6m/~~^!~_']`/ERE!RYIYYYr %m/^~!RYRYcoO3U!~/^EEERYCIYE!~~!EYYICbscssppprwr+ %m^!~/^^)((^^~EEEYYIIBs= ",
"6N/~~/~/_]]`/ERE!EYCBBC1 %v/~~!RRRIp.#3I!!^~ERYICCCCYREEEYBBBICBbccsppr11+ %m~!!/!!///^~~EERICCBbc& ",
"6N/^//^//)`(^EIR!!Yrrpc=X%m/~~~^EIbp.#3T!!^/!RYYICCCIIIIICssbYRRCbbcprr11+ %m^//~!EREE!!EYCCCCCcsc= ",
";m/~^/^^///!ERIIYYBrrpc= %N//^~!EIbr.X:T!E^/^ER!YCCIICCCICbccRRRIBBccsppp=X%m^^^~EEERE!RICBBCBbssc= ",
"6m/~~/^~~!!YIYYYICbppsc, %N//^^ERYBpo#3T!!~//~!^ECCCICCCYIBccYREYIBBbssps= %m^~~!EEREE!RCBbcBBssss= ",
"6h~^/~/~!RICYEEERRIBccc= %N//~!RYIIs.#3I~/!E!~^~RICCBBCYICcscCYERYCBbsppr+ %m~^!EEEERE!YCBbcbBCcss& ",
"6m^~^^^!EYIRYRE!EEYCBbs= %N/~~~RIICso#>T~/!!!~~!RYRYYBBCBbcsscCYYICbcspp1+ %m^~~~~!RE!~EICbcCIYbpr& ",
";m/~~/^!YYR!RCR!!EYBCBs=X%m/~~/YCBCs.#3T~/~!!!!RYYE!!IBbcsBcsscBBBBbspprw+ %d^~//^!Y!^^!EIBbYREBpw+ ",
"6N/~~/~!RYYICbYR!!ERCbc= %N//^!Ibcbp.O3U!~!!EERIIY!!!EYBccbbcsspsppcsrwrw+X%m///^ERE!~^~~RICYERIcw+ ",
"6m/~!~ERRRYBcsBIEE!RCBb= %m//~!Ibbsr.#3I!~!EERRRRRRE!!YcccBbbcpprrrpp111w+ %m//~~RR!~~~^~EYCIYYIbr+ ",
"6m~!EIIYIERBspcBYRRRCbB, %N/^~!ICbcw.#3T~~~!RE!/^EIYE!Isssbbbcspw11ppwww1+X#N//~!RR!!!~~~EYCCCCCbw+ ",
"6m~~RBBCICCYCbBIRBBBbss= %m^~RBBbccr.O3T~^^!IE//~EBbCBBssscsppprww1rrpr11+ %m/^~!~!!!!YRRCBBCCCbsr+ ",
"6m~!RBBBCBCIIBBCIbcccss= %m~!Rbbbcsr.O>I!~^~R~~~!Rcsccccsppprrppprrrrprwr&X%N//^~~~!ERICCCBBBCBsrr& ",
"%h!!EYICbCCsscssbbbcbbc= %m^~RICbccr.#>T!!~//~EIYYcsccccsspr11pBbbcrwrwwp& %N////~E!YCCBBCCCBbcprs= ",
"6h!ERCICBCCBbbcbbbbBBCBe#6m!RYICBBBc$%3T!!!!~!RCIIBBBBBBbccpprcBBBBbspppc2%%N/^~~RYEEYICBCCCCBbccB, ",
"6m!RYCCCCCCCCBBBbBBCCCCf76jEYICCCCCn869T!~EREEYIICCCCCCCCbbccsBCCCCCBcccBi67m/!EEIIYRRCCCCCCCCBBBC1X",
"qlYYYYICCCCCCCCCCCCCCCCg00jYYICCCCCnk0kT^(EYYYYIYICCCCCCCCCCCBCCCCCCCCBCCg00A/EYYICIIICCCCCCCCCCCCi%",
"KxDDDDSSSSSSSSSSSSSSSSSxKKzDDSSSSSSFLKLHWQJDDDDDDDSSSSSSSSSSSSSSSSSSSSSSSzKKGWJSDSSSSSSSSSSSSSSSSSk7",
"PPPPPPPPPPPPPPPPPPPPPPPPPPPPPPPPPPPPPPPPPPPPPPPPPPPPPPPPPPPPPPPPPPPPPPPPPPPPPPPPPPPPPPPPPPPPPPPPPPK0"
};
