/* XPM */
static char *_78d547d6d57488df94591abdc350dfe[] = {
/* columns rows colors chars-per-pixel */
"32 32 191 2 ",
"   c #1D1D1D",
".  c #211F1C",
"X  c #1D3C1D",
"o  c #2C231A",
"O  c #3E3E17",
"+  c #372818",
"@  c #1F2221",
"#  c #1E2F27",
"$  c #222222",
"%  c #242A24",
"&  c #563912",
"*  c #543614",
"=  c #1C521D",
"-  c #1B4D1C",
";  c #20501A",
":  c #3F5A11",
">  c #0D6119",
",  c #166718",
"<  c #396911",
"1  c #1E5120",
"2  c #144D30",
"3  c #0B6E2E",
"4  c #097632",
"5  c #504513",
"6  c #5F5B13",
"7  c #7F5115",
"8  c #774A15",
"9  c #586B10",
"0  c #48741C",
"q  c #777D13",
"w  c #657426",
"e  c #01465A",
"r  c #034958",
"t  c #234A49",
"y  c #07624F",
"u  c #047B4B",
"i  c #046559",
"p  c #05745A",
"a  c #356450",
"s  c #256A48",
"d  c #014D61",
"f  c #00556B",
"g  c #01596E",
"h  c #045865",
"j  c #005C73",
"k  c #115F72",
"l  c #056163",
"z  c #077461",
"x  c #077A66",
"c  c #01637C",
"v  c #046B7A",
"b  c #067476",
"n  c #6D6D6D",
"m  c gray49",
"M  c #8A5913",
"N  c #995C14",
"B  c #9B6618",
"V  c #8F6815",
"C  c #A96614",
"Z  c #B46C16",
"A  c #AE7419",
"S  c #BE7318",
"D  c #9A6924",
"F  c #C47517",
"G  c #CC7A17",
"H  c #C57618",
"J  c #CC7A19",
"K  c #D37E19",
"L  c #D07D17",
"P  c #0F9813",
"I  c #17871B",
"U  c #24980C",
"Y  c #1CA80F",
"T  c #0CBB0D",
"R  c #14BE0E",
"E  c #0AB311",
"W  c #07BC1B",
"Q  c #06B51C",
"!  c #0EAA1A",
"~  c #28B00E",
"^  c #3DA210",
"/  c #0F832F",
"(  c #0C8438",
")  c #069D31",
"_  c #079837",
"`  c #06AD2A",
"'  c #06A72C",
"]  c #06B625",
"[  c #06B23F",
"{  c #5B8F12",
"}  c #509B11",
"|  c #638A12",
" . c #07D80D",
".. c #10D00A",
"X. c #06CD14",
"o. c #07C518",
"O. c #06DC1B",
"+. c #04D814",
"@. c #1DC60D",
"#. c #06E50D",
"$. c #04EC0C",
"%. c #03F40B",
"&. c #00FF09",
"*. c #04EA14",
"=. c #04E91D",
"-. c #0DF115",
";. c #17EB1F",
":. c #06CC2B",
">. c #07C129",
",. c #12C22A",
"<. c #06D525",
"1. c #08C636",
"2. c #2FDD34",
"3. c #35DD3A",
"4. c #1FEA26",
"5. c #33E838",
"6. c #058543",
"7. c #079252",
"8. c #07BD41",
"9. c #08B658",
"0. c #08AB49",
"q. c #25B946",
"w. c #1F8E67",
"e. c #088072",
"r. c #099E7E",
"t. c #0A917C",
"y. c #079666",
"u. c #08A266",
"i. c #1BA26A",
"p. c #3EB267",
"a. c #28A274",
"s. c #3CD941",
"d. c #73C175",
"f. c #9B8218",
"g. c #AC8017",
"h. c #D68019",
"j. c #DC841A",
"k. c #E2871A",
"l. c #EA8C1B",
"z. c #F08F1C",
"x. c #F5921C",
"c. c #046B85",
"v. c #046F88",
"b. c #02738F",
"n. c #047794",
"m. c #237E95",
"M. c #287184",
"N. c #407987",
"B. c #098584",
"V. c #079487",
"C. c #06809F",
"Z. c #088A95",
"A. c #079697",
"S. c #06A79D",
"D. c #0485A6",
"F. c #058AAB",
"G. c #098BAC",
"H. c #1683A0",
"J. c #079BA4",
"K. c #0796A9",
"L. c #0492B5",
"P. c #0595BA",
"I. c #0598BD",
"U. c #0996B7",
"Y. c #2295B2",
"T. c #06A1B2",
"R. c #539BAE",
"E. c #74ADBB",
"W. c #65ABBD",
"Q. c #059EC4",
"!. c #0B9FC4",
"~. c #04A5CD",
"^. c #04A0C7",
"/. c #1AA1C3",
"(. c #04A7D0",
"). c #38A8C4",
"_. c #71B0C0",
"`. c #8DB4BF",
"'. c #93B4BD",
"]. c #A9D5AB",
"[. c #AFD3B1",
"{. c #84B6C3",
"}. c #93BCC7",
"|. c #9FC6D0",
" X c #BFD1D6",
".X c #B1C8CE",
"XX c #DBDCDB",
"oX c #DEE0E1",
"OX c #ECEDED",
"+X c #F5F6F6",
"@X c #FDFDFD",
/* pixels */
"&.&.&.&.&.&.&.&.&.&.&.&.&.&.&.&.&.&.&.&.&.&.&.&.&.&.&.&.&.&.&.&.",
"&.&.&.&.&.&.&.&.&.&.&.&.&.&.&.%.9.y.6.' X.&.&.&.&.&.&.&.&.&.&.&.",
"&.&.&.&.&.&.&.&.&.&.&.&.&.&.$.u.(.P.c.c.F.^.U.S.7.6.' +.%.&.&.&.",
"&.&.&.&.&.&.&.&.&.&.&.&.&.&.[ U.(.Q.Q.Q.(.(.(.Q.c.f g h 6.+.&.&.",
"&.&.&.&.&.&.&.&.&.&.&.&.&.:.J.~.(.(.(.(.(.(.(.~.n.j e d j l ] &.",
"&.&.&.&.&.&.&.&.&.&.&.4.5.w.G.I.(.(.!./.).)./.L.b.j f f j j u $.",
"&.&.&.&.&.&.&.&.&.-.d.m +X@X_.L.(.!.}.@X@X@X+X}.D.j j e j j p  .",
"&.&.&.&.&.&.&.&.&.5.XXXX@X+XXXY.(.W.@Xn oX@X@X+XM.c.j j j j 6.%.",
"&.&.&.&.&.&.&.&.&.;.].@X@XOX'.G.(._.@X@X@X@X@XOXM.k j j j g ] &.",
"&.&.&.&.&.&.&.&.&.&.,.E.'.R.H.G.(.R.OX@X@X@XOXoXk j j f d y ` %.",
"&.&.&.&.&.&.&.&.&.*.r.I.^.G.G.n.v.I.Y.`..X.XE.H.j j j e r r d _ ",
"&.&.&.&.&.&.&.&.&.*.i.|._.^.I.A.I.!.!.L.U.G.P.b.j j g j g f y W ",
"&.&.&.&.&.&.&.&.&.&.s.@XOXp.<.O.V.K.I.U.D.F.L.v p u ) ` ) ` O.&.",
"&.&.&.&.&.&.&.&.&.&.2.[.].3.&.&.%.1.K.Q.^.v.) O.$.&.&.&.&.&.&.&.",
"&.&.&.&.W  .&.&.&.&.&.$.$.$.$.$.%.%.=.Z.C.t 0  .&.&.&.&.&.&.&.&.",
"&.&.&. .v u.W 0.s D H J L K K K K H S Z D Z A R &.&.&.&.&.&.&.&.",
"&.] B.x v C.I.~.B.w z.x.x.x.x.z.l.k.K H N F A ~ &.&.&.&.&.&.&.&.",
" .p b 3 n.c.I.K.o. .6 Z F G G G H C C Z Z h.Z ^ &.&.&.&.&.&.&.&.",
"&.&.%.( c 3 v.7.0.V.a M C C B C N h.x.z.l.G H { &.&.&.&.&.&.&.&.",
"&.&.&.! 4 > r l F.U.) T 9 S G A V z.x.j.j.G G q &.&.&.&.&.&.&.&.",
"&.&.&.$.u.e.v n.D.V.X.&.$.} | @.f.x.x.H L J G V &.&.&.&.&.&.&.&.",
"&.&.&.+.B./ p z z B.] %.&.%.%.%.7 Z j.M J J J A $.&.&.&.&.&.&.&.",
"&.&.&.&.&.&.` h E Q )  .&.&.&.$.X @   o * o + 8 T &.&.&.&.&.&.&.",
"&.&.&.&.&.&.&.&.&.&.&.&.&.&.&.&.E X $ @   $ % , $.&.&.&.&.&.&.&.",
"&.&.&.&.&.&.&.&.&.&.&.&.&.&.&.&.&.P   . @ X E &.&.&.&.&.&.&.&.&.",
"&.&.&.&.&.&.&.&.&.&.&.&.&.&.&.&.#.- $ I - o I &.&.&.&.&.&.&.&.&.",
"&.&.&.&.&.&.&.&.&.&.&.&.%.&.&.&.,   = &.%.( # = ..&.&.&.&.&.&.&.",
"&.&.&.&.&.&.&.&.&.&.&.*.a.u.=.#./ 2 ! &.&.#.= o O Y &.&.&.&.&.&.",
"&.&.&.&.&.&.&.&.&.&.&.#.q.V.r.9.t.1.$.%.U < 5 & < R &.&.&.&.&.&.",
"&.&.&.&.&.&.&.&.&.&.&.&.&.$.:.[ b O.&...& & 5 Y %.&.&.&.&.&.&.&.",
"&.&.&.&.&.&.&.&.&.&.&.&.&.&.&.&.&.&.&.%.Y $.&.&.&.&.&.&.&.&.&.&.",
"&.&.&.&.&.&.&.&.&.&.&.&.&.&.&.&.&.&.&.&.&.&.&.&.&.&.&.&.&.&.&.&."
};
