/* XPM */
static char *b4b981e43a064459b62764c39306720a[] = {
/* columns rows colors chars-per-pixel */
"64 64 231 2 ",
"   c #010406",
".  c #080D13",
"X  c #06151C",
"o  c #141414",
"O  c #1E1D1D",
"+  c #16181B",
"@  c #1B140C",
"#  c #2B1909",
"$  c #3D1C01",
"%  c #271D16",
"&  c #1D211A",
"*  c #3D2B16",
"=  c #3C260D",
"-  c #1D1E21",
";  c #021D24",
":  c #1D2427",
">  c #012B39",
",  c #052A36",
"<  c #172D33",
"1  c #032934",
"2  c #222222",
"3  c #2B2A2A",
"4  c #363534",
"5  c #2D3631",
"6  c #462504",
"7  c #542A05",
"8  c #57330D",
"9  c #493219",
"0  c #4E3014",
"q  c #643B16",
"w  c #6C3C08",
"e  c #49392B",
"r  c #75470F",
"t  c #7B490E",
"y  c #7C4A10",
"u  c #754A1B",
"i  c #6C4319",
"p  c #5A4635",
"a  c #5B5330",
"s  c #6E512F",
"d  c #70522F",
"f  c #736131",
"g  c #013442",
"h  c #023B4C",
"j  c #073948",
"k  c #003E52",
"l  c #143E48",
"z  c #024455",
"x  c #01465A",
"c  c #024A5D",
"v  c #0A4656",
"b  c #174A57",
"n  c #1A414B",
"m  c #284A54",
"M  c #394A4E",
"N  c #014C63",
"B  c #015166",
"V  c #01546B",
"C  c #02586E",
"Z  c #0C5B6E",
"A  c #165667",
"S  c #015C73",
"D  c #035A74",
"F  c #135871",
"G  c #255C6B",
"H  c #275B68",
"J  c #3A5C66",
"K  c #026077",
"L  c #02627A",
"P  c #0A6178",
"I  c #1E6577",
"U  c #266677",
"Y  c #366C7A",
"T  c #39626C",
"R  c #465458",
"E  c #50524E",
"W  c #6C5A48",
"Q  c #6D5E4F",
"!  c #6E6256",
"~  c #49727D",
"^  c #4F6A72",
"/  c #656464",
"(  c #777979",
")  c #6F716F",
"_  c #824E11",
"`  c #895413",
"'  c #955A12",
"]  c #985B12",
"[  c #925206",
"{  c #A75E05",
"}  c #A96616",
"|  c #B36B15",
" . c #B36C18",
".. c #BB7017",
"X. c #B46609",
"o. c #996324",
"O. c #A36926",
"+. c #A06F35",
"@. c #C9740C",
"#. c #D77C0F",
"$. c #C47616",
"%. c #CC7A17",
"&. c #CC7B19",
"*. c #C97714",
"=. c #D17D16",
"-. c #D37E19",
";. c #C16E0A",
":. c #897C74",
">. c #84776B",
",. c #D5811A",
"<. c #DB8319",
"1. c #DB8216",
"2. c #E4891B",
"3. c #EB8D1B",
"4. c #E48818",
"5. c #F4921C",
"6. c #FB961D",
"7. c #FF9B1D",
"8. c #FF9816",
"9. c #F28E17",
"0. c #FFA31E",
"q. c #FB9920",
"w. c #87837F",
"e. c #016C8B",
"r. c #036884",
"t. c #03718D",
"y. c #027493",
"u. c #037C9C",
"i. c #087A98",
"p. c #197C96",
"a. c #177187",
"s. c #387989",
"d. c #257C92",
"f. c #267489",
"g. c #007DA1",
"h. c #497986",
"j. c #567B84",
"k. c #717F83",
"l. c #0C809E",
"z. c #31869C",
"x. c #0383A4",
"c. c #038AAC",
"v. c #0585A7",
"b. c #018DB2",
"n. c #008FB9",
"m. c #0391B5",
"M. c #0294BB",
"N. c #0599BE",
"B. c #0995B8",
"V. c #1889A7",
"C. c #2592AE",
"Z. c #32A1BD",
"A. c #5B838D",
"S. c #578591",
"D. c #478596",
"F. c #798488",
"G. c #7A9298",
"H. c #708B93",
"J. c #4C92A5",
"K. c #6799A6",
"L. c #779DA7",
"P. c #7BA0A9",
"I. c #039DC5",
"U. c #009FC9",
"Y. c #069CC3",
"T. c #03A4CD",
"R. c #08A2C8",
"E. c #04A7D0",
"W. c #04AAD4",
"Q. c #08ABD3",
"!. c #04AED9",
"~. c #0AAFD9",
"^. c #05B1DD",
"/. c #09B3DD",
"(. c #05B6E2",
"). c #05BAE8",
"_. c #7EB4C2",
"`. c #868787",
"'. c #9A9289",
"]. c #87969A",
"[. c #979798",
"{. c #948C85",
"}. c #A59C9A",
"|. c #A9A49F",
" X c #909DA2",
".X c #99A3A6",
"XX c #99AFB5",
"oX c #A3A4A4",
"OX c #ABABAC",
"+X c #A6A9AB",
"@X c #ABAFB2",
"#X c #ADB6B9",
"$X c #BBBCBC",
"%X c #B7B6B6",
"&X c #B6ABA8",
"*X c #C5BDBB",
"=X c #C0A7A1",
"-X c #CBC1BF",
";X c #ABBDC2",
":X c #BDC2C7",
">X c #CCC6C5",
",X c #CCCACA",
"<X c #C2C5CA",
"1X c #D2CBC9",
"2X c #DBD1CE",
"3X c #C7CCD3",
"4X c #CBD4DB",
"5X c #D4D4D4",
"6X c #DDDCDC",
"7X c #D9D6D5",
"8X c #E3DCDA",
"9X c #E6DAD7",
"0X c #E4D2CE",
"qX c #E9E1DF",
"wX c #D8DDE2",
"eX c #DCE2E8",
"rX c #E4E3E3",
"tX c #ECE6E4",
"yX c #EDEDED",
"uX c #E6E8E9",
"iX c #F2EDEC",
"pX c #F6ECEA",
"aX c #F7F1EF",
"sX c #E7ECF2",
"dX c #EFF0F1",
"fX c #F4F4F4",
"gX c #FBF5F3",
"hX c #FCF8F7",
"jX c #F6F7F8",
"kX c #F6F9FA",
"lX c #FCFCFC",
/* pixels */
"lXfXyXlXfXyXlXfXyXlXkXyXlXlXyXhXlXyXhXlXuXhXlXyXhXlXyXjXlXyXjXlXuXfXlXyXfXlXyXfXlXdXfXlXfXdXlXfXfXlXfXyXlXfXyXlXfXyXlXfXiXlXfXyX",
"fXfXlXfXfXlXfXfXlXdXfXlXdXdXlXfXdXlXfXdXlXfXdXlXfXdXlXfXyXlXfXfXlXlXgXlXlXlXlXkXdXkXfXyXlXkXiXkXkXyXlXkXiXjXlXyXkXlXyXjXlXdXhXlX",
"kXjXfXfXhXfXkXfXfXhXjXfXhXjXdXhXjXfXjXjXfXjXhXdXjXhXaXjXhXfXlXaX:XP.K.A.H. X,XiXlXlXlXlXfXfXhXfXfXkXfXdXkXfXfXkXfXfXkXgXfXkXfXfX",
"jXkXfXfXjXfXjXfXfXfXfXfXfXjXfXfXhXfXfXgXfXfXjXfXjXfXfXjXjXfX8XD.c.I.m.V N N x H h. X#X7XtXaXlXlXlXlXlXhXfXfXfXfXfXfXjXjXfXkXfXfX",
"aXfXkXfXfXkXfXfXkXfXfXkXfXfXlXfXfXkXfXfXkXfXfXkXfXaXhXfXdXhXS.I./.Q.R.D D P L C D I.m.v.V.J.K.XX;X%X1XiXgXlXlXfXfXhXfXfXkXfXfXlX",
"lXfXyXlXkXiXlXhXyXlXhXyXkXhXyXkXlXyXkXlXyXhXlXdXjXlXdXfXlX>XP Y.R.E.E.c.S C C L N.Q.!.!.W.T.U.m.S N c A ~ ].,XlXlXfXkXgXiXlXfXyX",
"yXfXlXfXfXlXdXfXlXdXfXlXdXfXlXfXaXlXdXdXlXfXyXlXfXdXlXfXgXS.T.E.T.E.E.W.I.b.m.T.Q.E.T.E.T.Q.Y.x.t.S L S C N c T +XhXkXjXlXdXjXlX",
"lXhXyXlXjXyXlXhXyXlXhXyXkXhXyXkXkXyXhXlXyXkXlXyXjXlXyXlX( t.N.T.E.E.E.E.E.!.W.E.E.E.E.E.T.T.W.y.C S S S P P L C c J $XlXyXlXfXyX",
"dXfXlXdXfXlXdXfXlXdXfXlXdXaXlXfXfXlXfXfXlXfXfXlXfXdXlX Xg.Q.T.E.E.E.E.E.E.E.E.E.E.E.E.E.T.W.W.E.e.S S S x k V S L C z ].lXdXfXkX",
"hXfXfXhXjXfXhXfXfXhXjXfXhXjXdXjXfXaXfXhXfXfXfXfXhXlX7Xp.(.E.T.E.E.E.E.E.E.T.E.Q.Q.Q.Q.Q.T.I.T.^.m.S S C g > z L S S L z [.lXfXfX",
"jXfXfXhXfXfXfXjXfXfXjXfXfXfXfXfXjXfXjXfXdXlXlXyXuXrX^ b.R.Q.(.E.E.E.E.E.T.W.W.I.M.M.M.T.!.N.y.v.v.S S S N N S S S S S L v 8XkXfX",
"dXfXlXdXfXlXdXfXkXfXfXhXfXfXlXfXfXkXfXfXlX6X%X%X$X[.^ P t.V r.E.E.E.E.Q.!.n.z.L.XX#XXXK.z.M.E.e.S K S S S S B B S S S D x .XlXkX",
"lXjXyXlXjXyXlXhXyXlXkXyXlXhXyXhXkXiXkXlX$XOX,XkXlXlXlX5Xz.v.Z T.E.E.E.E.p.#XpXlXlXlXlXlXpX@XV.!.x.B S S S c 1 k S S S D x .XlXyX",
"yXfXlXdXfXlXdXfXlXdXfXlXdXdXlXdXiXlXkX,X%X$X  ( lXkXlXlX9Xp.(.E.E.E.E.f.9XlXlXhXlXlXlXlXlXlX2Xp.W.x.C S S V N C S S S L x +XlXlX",
"lXfXiXlXhXyXlXhXyXlXhXyXlXhXyXlXkXyXlXOXyXyX[.6XlXlXlXyXlX].m.Q.T./.y.*XlXdX4 E lXlXlXlXlXlXlXOXV c.e.C S S L S S S S S z 8XlXyX",
"dXfXlXfXfXlXdXfXkXfXfXkXfXfXkXfXfXlXkX|.dXlXlXlXlXlXkXrXuX].n.Q.E.T.s.gXlXjX/ / lXlXlXlXlXfXjXyXH C K S S S S S S S S B ^ jXfXlX",
"hXjXfXjXjXfXhXfXfXfXfXfXfXjXfXjXjXdXlX$X,XlXfXlXlXlXyXwXpX~ T.T.E.I.j.lXlXlXlXlXlXlXlXlXlXfX6XfX~ C S S S S S S S C L k OXlXfXfX",
"jXfXfXfXfXfXjXjXfXhXjXfXjXhXfXjXfXfXfXjX].6XlXlXlXfXyXgX`.y.R.T.Q.T.Y hXlXlXlXlXlXlXlXlXlXkX6XrXH C S S S S S S K K N k.lXfXfXfX",
"dXfXlXfXfXlXdXfXlXdXfXlXdXfXlXdXfXlXaXkXuXJ ].,X8X*X+Xh.x.N.y.^.T.W.r.>XlXlXlXlXlXlXlXlXuXdXkX+XN S S S S S S V B V n $XuXhXfXlX",
"lXhXyXlXjXyXlXhXyXlXkXyXlXhXyXhXhXyXkXkXgXs.m.x.i.i.u.u.L !.C i.^.W.Y.U qXlXlXlXlXlXfXlX6XjX>XG S S S S S S c z z c c z b ].hXyX",
"yXfXlXyXfXlXdXfXlXdXfXlXdXfXlXdXdXlXfXjXOXi.~.Q.W.W.T.1 > (.I.  t.c.R.M.U @XaXlXlXuXfXhX8X.XI C S S S S S B c h > g B B c h @XlX",
"lXgXdXlXfXyXlXhXyXkXhXyXlXkXiXkXkXyXlX+Xx.(.U.M.I.T.I.v.R.W.W.X C i.c./.U.e.Y H..X.X.XH.s.m.x.C S S S S S z g x S z c L C h ].lX",
"fXfXlXdXfXlXdXfXlXfXfXlXdXfXlXfXfXkXlX.Xx.m.z.L.z.M.T.!./.I.T.B.I.T.!.!.Q.(.E.Y.x.x.b.M.!.N.C S S S S S K C D L C z C P N j 5XlX",
"jXfXfXjXjXfXhXfXfXhXfXfXhXfXfXfXjXfXfXlX%X`.gXlXqXS.m.W.n.A.s.T./.B.v.N.T.b.u.B.(.~.i.v.R.M.K K P K K K C N C C B C V k b $XlXfX",
"hXjXfXjXjXfXhXfXfXfXjXfXjXgXfXhXjXfXfXlX6X%XlXlXlXhX) J.G.gX0XI g.x.U.v.x.u.N.r.i.v.L !.R.E.L C B N c c ^ H.~ H G Y ^ ].rXlXfXfX",
"dXfXlXdXfXlXdXfXlXfXfXlXdXfXlXdXfXlXaXjXrX@XlXqXuXeX%XjXhXkXlX6XG.K.V.W.R.!.E./.i.L R.^.c.B c H ~ .X#X$XtXlXlXpXiXgXhXlXlXdXjXlX",
"lXhXyXlXkXyXlXhXyXlXjXyXlXkXyXkXlXyXkXlX5XOX6X$X6X5X[.kXkXyXfXlXgXlX0Xa.T.m.B.R.!.^.c.h k.$X6XpXlXlXlXlXlXdXdXlXfXdXlXdXyXlXfXyX",
"yXfXlXyXfXlXyXfXlXfXfXlXdXfXlXfXdXlXdXdXfX%XOX$X$X@X5XfXyXlXfXyXkXfXkX>Xp.I.R.b.^.v.z g 9XlXdXlXlXuXhXkXyXkXlXyXjXlXyXjXlXyXhXlX",
"lXjXdXlXjXyXlXkXlXtXyXiXkXhXyXkXhXiXlXlXhXlXlXlXlXlXlXlXlXlXlXlXlXlXlXlX1Xp.!.Q.m.c L g / %XkXfXfXlXfXfXlXfXdXlXfXdXlXfXfXlXfXyX",
"dXfXhXfXfXhXfXfX+Xm F.lXyXfXlXlXlXdXeXwXwX4X3X3X<X<X<X<X:X<X<X<X3X3X4X4XsX#XF y.u.C 5 o.[ ! kXfXjXiXjXkXdXjXhXdXfXjXfXhXkXfXjXkX",
"hXjXfXfXlXjXlX) g W.F 9XlXaX1X&XF.e O.o.O.} } } } } | } } | } } } } } o.o.+.u a E = ..0.#.W kXfXgXjXfXfXhXfXfXfXfXfXjXfXfXfXjXgX",
"hXjXdXlX8X9XhX&Xg B.x./ [.s.r.x.c.Z =.0.8.7.q.6.7.7.7.7.7.7.7.7.7.7.7.7.7.8.7.8.8.' | 4.@.s dXfXfXkXfXfXkXfXfXlXfXfXkXfXfXhXfXfX",
"dXfXlXoXA d.s.h.j x P r.c.T.^.!.).y.& 4.q.5.6.6.6.7.5.5.5.5.5.5.5.5.3.3.,.&... .} 8 2.&.1.i 4XlXhXyXkXlXdXjXhXdXhXlXdXhXlXdXfXlX",
"lXlX1XF (.I.D r.u.N.!.(.!.E.T.(.Z ) 3Xd 3.3.<.<.<.<.3.3.4.1.,.,.&.&.&.=.,.%.%...` r 3.$.<.y 3XlXdXlXdXdXlXfXdXlXfXyXlXfXyXlXfXyX",
"fX6X< x.I.j :.: x.T.u.e.I.E.^.D ) lXlX4X* ` ] | ..$.*.*.*.*.%.,.,.1.%.| ] ` _ ` ' ,.,.%.<._ .XlXjXyXlXlXyXkXlXyXjXlXyXfXlXyXhXlX",
"lX6X:.J , oX%XB m.l R g N./.r./ lXlXtX:.u ] 4.%.,.&.%.,.<.<.%. .] r _ '  .,.3.7.7.3.*.%.<.{ '.lXyXlXaXdXlXaXdXlXfXdXlXfXdXlXfXdX",
"iXlXlXgX7XlX}.C b.5 qXn b.N.M lXlXoXh.x f w } 1.,.,.*. .] y r y ` 8 5.7.7.7.6.3.5.1.%.%.1.X.) lXfXdXhXjXdXgXjXdXjXhXaXjXhXfXfXhX",
"fXfXfXfXkXlX}.V Q.h [., c.M.R 9X^ y.T.).y.3 = X.} r r y ' | *.3. .` 7.5.5.5.5.1.5.%.%.%.%.@.W kXfXgXjXfXfXjXjXfXjXjXfXfXjXfXjXjX",
"lXjXfXfXfXlXOX> S > / : g x.t.< c.(.Q.I.m tX<X4 # } ,.,.,.,.<.;.8 | 7.5.5.6.2.=.3.%.=.%.%.=.s eXhXkXfXfXlXfXaXlXfXaXhXjXdXlXfXdX",
"yXfXkXfXgXlXuX1X1X|.*X{.X 1 V g z T./.y.w.lXhXfXw.` @.,.,.%.[ >.E #.6.5.5.6.&.&.4.%.%.%.%.1.r 3XlXyXkXlXyXjXlXyXjXlXyXjXlXyXhXlX",
"lXjXiXlXkXyXlXlXF.d.p.e.y.B.v.u.b.Q.!.c -XlXhXdXlX3XW { { d @XkXo.5.5.5.5.7...$.1.%.%.%.%.<.[ [.lXlXdXdXlXfXdXlXfXyXlXfXdXlXfXyX",
"yXjXlXyXfXlXfX9XZ ).y.m l N.c.h N Q.b.R lXdXyXlXdXhXlX'.w.dXlX:Xu 0.q.5.5.6.} ..=.%.%.%.&.,.{ `.lXuXhXlXyXhXlXyXkXlXyXjXlXyXhXlX",
"lXfXdXlXjXyXlX|.e.E.j =Xv M.1 &XM y.!.m 0XlXlXdXjXhXaXlXlXdXlXoX..} y q.7.7.' %.%.%.=.,.%.&.X.Q kXlXfXdXlXfXdXlXfXdXlXfXdXlXfXdX",
"aXfXkXfXfXfXlXF.m b / hXR c.r.) *X> c.u.G F.>XfXfXfXjXfXdXfXlX! 6 . 0 7...i @ _ <.1.$.| 1.<.#.s sXhXfXjXfXfXjXfXjXjXaXjXjXfXjXhX",
"fXfXjXfXfXjXfXjXfXpXdXkX&Xz T.> `.OX/ G S 1 ( fXfXfXjXfXfXfXhX( . 2 % * o + O o ' ] # + 0 ' 1._ <XkXfXjXfXfXjXfXfXfXfXfXfXjXfXhX",
"lXfXfXkXjXiXhXjXfXkXjXaXlXR H ^ `.lXlXpX>X8XlXfXhXkXdXjXkXfXfXlXE @ 2 + 2 2 2 O o o - 2 + + * 6 [.lXdXfXlXfXfXhXfXfXlXfXdXhXfXdX",
"yXfXlXfXfXlXiXfXlXdXaXlXfXyXgXlXlXlXfXfXlXkXyXlXjXiXlXfXyXlXfXfXrX3 + 2 O O : 2 2 O & 2 3 o : @X1XfXhXkXyXhXlXyXhXlXdXhXlXdXfXlX",
"lXfXyXlXhXyXlXkXyXkXhXyXlXlXyXkXkXyXkXlXyXkXlXyXkXlXyXkXlXyXfXlXfX6X/ O 3 O O 2 2 O 2 2 o E 1XlXjXlXfXdXlXdXdXlXfXdXlXfXdXlXfXyX",
"iXfXlXdXfXlXdXfXlXdXfXlXdXdXlXfXaXlXdXdXlXfXdXlXfXdXlXfXiXlXfXyXlXlXyX3 o o o : 2 2 + / @XhXfXfXkXyXhXlXyXhXkXyXjXlXdXjXlXyXjXlX",
"lXkXdXlXhXdXlXjXdXhXhXdXkXhXdXhXhXdXkXlXdXhXhXdXjXhXdXjXkXfXkXlXyXlX{.o 2 - % % - 2 + w.lXfXkXfXfXlXfXfXlXfXfXlXfXdXlXfXdXlXgXdX",
"fXfXhXfXfXkXfXfXhXfXfXkXfXfXjXfXfXjXfXfXjXfXfXjXfXfXhXfXfXkXfXfXjXuX3 O 2 + ( <Xo % % o `.lXfXfXfXfXfXfXfXfXfXfXgXjXfXfXjXfXfXhX",
"fXjXfXfXfXkXfXfXfXfXfXhXfXfXjXfXfXjXfXfXjXfXfXhXfXfXjXfXfXfXfXfXlX) o 2 O 4 uXlX+X+ v < % [.lXlXfXfXjXjXfXfXjXfXfXhXfXfXjXfXjXjX",
"lXfXfXkXfXfXkXhXdXkXhXdXhXjXdXhXkXdXhXhXyXhXlXdXjXlXfXfXlXdXfXlX@Xo 2 2 o `.lXdXlX:Xv., 2 - `.7XlXlXfXfXkXfXfXlXfXdXlXfXdXlXfXdX",
"dXfXlXyXfXlXyXfXlXdXfXlXdXfXlXdXaXlXfXdXlXfXdXlXgX7XlXlXyXkXlX,X2 2 % O 4 qXlXkXyXlX$X+ 2 2 o 3 ) uXlXhXiXkXlXyXhXlXyXhXlXiXhXlX",
"lXhXyXlXhXyXlXjXyXlXhXyXlXhXyXlXlXyXkXlXyXjXlXtXD.P A.4XlXdX6X) OXM ; + `.lXyXfXlXuXlX{.. 2 - % @ Q rXjXlXfXyXlXfXyXlXfXiXlXfXyX",
"yXfXlXfXfXlXdXfXlXdXfXlXdXfXlXdXdXlXfXdXlXfXfXj.K.Z.T.V.1XlXtXlX7XD G [.oXkXhXkXkXlXlXyXe % 0 0 q 7 9 wXfXjXlXyXjXlXdXjXlXdXjXlX",
"lXfXdXhXfXdXhXjXdXlXjXdXhXjXdXhXkXdXhXlXdXjXhXG.A.j.t.E.C._.4X6XJ.u.1XiX5XlXfXkX$X>.! W q q q 8 9 p {.rXlXfXdXlXfXdXhXjXdXhXfXaX",
"fXjXfXfXfXjXfXjXhXfXfXhXjXfXjXfXfXjXfXfXjXfXjXlXuXfX].U e.e.y.m.!.a.8XkXkXfXlX'.$ 7 7 8 q 7 6 e %XfXlXlXfXfXjXfXjXhXfXjXjXfXjXjX",
"fXgXjXfXfXhXaXfXhXfXfXjXfXfXhXfXfXhXfXfXhXfXfXfXlXfXlXuX$X X].U u.N $XlXfXfXdX9 8 i q 6 $ p &XfXlXfXfXfXfXhXjXfXfXhXfXjXjXfXjXjX",
"lXjXdXlXjXdXlXjXyXkXhXdXhXjXdXlXhXdXhXkXdXjXhXdXjXlXdXkXlXlXlXqXG.j.wXkXfXlXdXp 7 6 6 W &XfXlXfXdXlXfXdXlXfXfXlXfXdXlXfXaXlXfXyX",
"yXfXlXdXfXlXdXfXlXdXdXlXdXdXlXfXdXlXfXdXlXfXdXlXfXiXlXfXyXlXdXfXlXlXdXlXgXyXlX$X9 >.,XjXlXhXuXkXkXyXkXlXyXhXlXyXhXlXyXjXlXdXjXlX",
"lXjXiXlXjXyXlXhXyXlXhXyXlXhXyXlXkXyXhXlXyXkXlXyXjXlXyXkXlXyXjXlXyXfXlXyXfXlXyXhXfXlXlXlXyXfXlXfXfXlXdXfXlXfXdXlXfXdXlXfXyXlXfXyX",
"dXfXlXdXfXlXdXfXlXdXfXlXaXdXlXdXfXlXdXaXlXfXdXlXfXiXlXfXdXlXfXdXlXfXdXlXjXdXlXfXfXhXfXiXlXkXiXlXkXyXhXkXyXhXlXdXjXhXyXhXlXdXjXlX",
"jXjXfXhXfXfXjXjXfXhXjXfXjXjXaXjXjXaXjXjXfXjXhXfXjXjXfXjXhXfXfXhXfXjXhXfXfXhXfXfXkXfXfXkXfXfXkXfXfXhXfXfXjXfXfXjXfXfXjXfXfXhXfXfX"
};
