/* XPM */
static char *_06fbaa560e049f3eec7cb7de72b59f7[] = {
/* columns rows colors chars-per-pixel */
"64 62 256 2 ",
"   c black",
".  c #0000A8",
"X  c #00A800",
"o  c #00A8A8",
"O  c #A80000",
"+  c #A800A8",
"@  c #A85400",
"#  c gray66",
"$  c gray33",
"%  c #5454FC",
"&  c #54FC54",
"*  c #54FCFC",
"=  c #FC5454",
"-  c #FC54FC",
";  c #FCFC54",
":  c gray99",
">  c #ECECEC",
",  c gainsboro",
"<  c #D0D0D0",
"1  c #C0C0C0",
"2  c #B4B4B4",
"3  c gray66",
"4  c #989898",
"5  c gray55",
"6  c #7C7C7C",
"7  c gray44",
"8  c #646464",
"9  c gray33",
"0  c #484848",
"q  c gray22",
"w  c #2C2C2C",
"e  c #202020",
"r  c #FC0000",
"t  c #EC0000",
"y  c #E00000",
"u  c #D40000",
"i  c #C80000",
"p  c #BC0000",
"a  c #B00000",
"s  c #A40000",
"d  c #980000",
"f  c #880000",
"g  c #7C0000",
"h  c #700000",
"j  c #640000",
"k  c #580000",
"l  c #4C0000",
"z  c #400000",
"x  c #FCD8D8",
"c  c #FCB8B8",
"v  c #FC9C9C",
"b  c #FC7C7C",
"n  c #FC5C5C",
"m  c #FC4040",
"M  c #FC2020",
"N  c #FC0000",
"B  c #FCA85C",
"V  c #FC9840",
"C  c #FC8820",
"Z  c #FC7800",
"A  c #E46C00",
"S  c #CC6000",
"D  c #B45400",
"F  c #9C4C00",
"G  c #FCFCD8",
"H  c #FCFCB8",
"J  c #FCFC9C",
"K  c #FCFC7C",
"L  c #FCF85C",
"P  c #FCF440",
"I  c #FCF420",
"U  c #FCF400",
"Y  c #E4D800",
"T  c #CCC400",
"R  c #B4AC00",
"E  c #9C9C00",
"W  c #848400",
"Q  c #706C00",
"!  c #585400",
"~  c #404000",
"^  c #D0FC5C",
"/  c #C4FC40",
"(  c #B4FC20",
")  c #A0FC00",
"_  c #90E400",
"`  c #80CC00",
"'  c #74B400",
"]  c #609C00",
"[  c #D8FCD8",
"{  c #BCFCB8",
"}  c #9CFC9C",
"|  c #80FC7C",
" . c #60FC5C",
".. c #40FC40",
"X. c #20FC20",
"o. c #00FC00",
"O. c #00FC00",
"+. c #00EC00",
"@. c #00E000",
"#. c #00D400",
"$. c #04C800",
"%. c #04BC00",
"&. c #04B000",
"*. c #04A400",
"=. c #049800",
"-. c #048800",
";. c #047C00",
":. c #047000",
">. c #046400",
",. c #045800",
"<. c #044C00",
"1. c #044000",
"2. c #D8FCFC",
"3. c #B8FCFC",
"4. c #9CFCFC",
"5. c #7CFCF8",
"6. c #5CFCFC",
"7. c #40FCFC",
"8. c #20FCFC",
"9. c #00FCFC",
"0. c #00E4E4",
"q. c #00CCCC",
"w. c #00B4B4",
"e. c #009C9C",
"r. c #008484",
"t. c #007070",
"y. c #005858",
"u. c #004040",
"i. c #5CBCFC",
"p. c #40B0FC",
"a. c #20A8FC",
"s. c #009CFC",
"d. c #008CE4",
"f. c #007CCC",
"g. c #006CB4",
"h. c #005C9C",
"j. c #D8D8FC",
"k. c #B8BCFC",
"l. c #9C9CFC",
"z. c #7C80FC",
"x. c #5C60FC",
"c. c #4040FC",
"v. c #2024FC",
"b. c #0004FC",
"n. c #0000FC",
"m. c #0000EC",
"M. c #0000E0",
"N. c #0000D4",
"B. c #0000C8",
"V. c #0000BC",
"C. c #0000B0",
"Z. c #0000A4",
"A. c #000098",
"S. c #000088",
"D. c #00007C",
"F. c #000070",
"G. c #000064",
"H. c #000058",
"J. c #00004C",
"K. c #000040",
"L. c #282828",
"P. c #FCE034",
"I. c #FCD424",
"U. c #FCCC18",
"Y. c #FCC008",
"T. c #FCB400",
"R. c #B420FC",
"E. c #A800FC",
"W. c #9800E4",
"Q. c #8000CC",
"!. c #7400B4",
"~. c #60009C",
"^. c #500084",
"/. c #440070",
"(. c #340058",
"). c #280040",
"_. c #FCD8FC",
"`. c #FCB8FC",
"'. c #FC9CFC",
"]. c #FC7CFC",
"[. c #FC5CFC",
"{. c #FC40FC",
"}. c #FC20FC",
"|. c #FC00FC",
" X c #E000E4",
".X c #C800CC",
"XX c #B400B4",
"oX c #9C009C",
"OX c #840084",
"+X c #6C0070",
"@X c #580058",
"#X c #400040",
"$X c #FCE8DC",
"%X c #FCE0D0",
"&X c #FCD8C4",
"*X c #FCD4BC",
"=X c #FCCCB0",
"-X c #FCC4A4",
";X c #FCBC9C",
":X c #FCB890",
">X c #FCB080",
",X c #FCA470",
"<X c #FC9C60",
"1X c #F0945C",
"2X c #E88C58",
"3X c #DC8854",
"4X c #D08050",
"5X c #C87C4C",
"6X c #BC7848",
"7X c #B47044",
"8X c #A86840",
"9X c #A0643C",
"0X c #9C6038",
"qX c #905C34",
"wX c #885830",
"eX c #80502C",
"rX c #744C28",
"tX c #6C4824",
"yX c #5C4020",
"uX c #543C1C",
"iX c #483818",
"pX c #403018",
"aX c #382C14",
"sX c #28200C",
"dX c #600064",
"fX c #006464",
"gX c #006060",
"hX c #00001C",
"jX c #00002C",
"kX c #302410",
"lX c #480048",
"zX c #500050",
"xX c #000034",
"cX c gray11",
"vX c #4C4C4C",
"bX c gray36",
"nX c gray25",
"mX c gray19",
"MX c #343434",
"NX c #D8F4F4",
"BX c #B8E8E8",
"VX c #9CDCDC",
"CX c #74C8C8",
"ZX c #48C0C0",
"AX c #20B4B4",
"SX c #20B0B0",
"DX c #00A4A4",
"FX c #009898",
"GX c #008C8C",
"HX c #008484",
"JX c #007C7C",
"KX c #007878",
"LX c #007474",
"PX c #007070",
"IX c #006C6C",
"UX c #980088",
/* pixels */
"$ q $ 0 0 0 0 0 $ 0 0 0 0 0 0 $ 0 q 0 0 0 0 0 0 0 $ $ $ $ $ $ 0 0 0 0 0 0 0 0 0 $ $ $ $ $ $ $ 0 0 0 0 q q q 0 0 $ $ 0 0 0 0 0 q ",
"q yXf f f g h j j k aXaXaX0 0 $ 6 5 5 6 6 7 8 8 $ $ $ 8 8 8 8 8 7 6 6 7 8 0 q $ d a p p a s f g g g g g g g f f d d d d d f yX0 ",
"0 f d d d f g h j k l z kXL.0 $ 5 4 4 4 5 6 7 8 8 $ $ 8 8 8 8 7 6 5 5 5 8 L.0 q a u y y i a d f f f f f f f d d s O a a O s f L.",
"0 f d d f f g j j k l z kXL.0 $ 5 4 4 5 5 6 7 8 8 $ $ $ $ $ $ 8 7 7 6 6 8 L.0 $ O u y u i O d f f f f g h g f f d d s O O d g L.",
"0 g f f f g h j j k z sXsXL.0 $ 5 5 5 5 6 7 7 8 8 $ $ 0 0 0 $ $ 8 8 8 8 $ L.0 0 s p i i a s f f f g h j j j j g f f d d d f j L.",
"0 h h h h h j j j l z sXsXL.0 $ 6 5 6 6 7 8 8 8 8 $ 0 nXq q nX0 $ $ $ $ 0 L.q 0 d s O s s d f f f g h j k k j j h g f f f g k L.",
"0 j j j j j j j k l z sXsXL.0 0 7 6 7 7 8 8 8 8 $ $ 0 q mXmXq q nX0 $ $ 0 L.q 0 f d d d d f f f f g j k k k k k j j h f f h l L.",
"0 k j j j j j j k l sXsXsXL.q $ 8 8 8 8 8 8 8 8 $ 0 nXq mXmXmXmXq q nX0 nXL.q 0 g f f f f g g g g h j k l l l l k k j j h j l L.",
"0 pXl l l k k l l z sXsXe L.q 0 $ $ $ $ $ $ $ $ 0 nXq mXmXmXmXmXmXmXq q q L.q 0 uXj j j j j j j j k l l l l l l l l l l k l z L.",
"0 0 L.L.L.L.L.L.L.L.e e e L.q $ 0 L.L.L.L.L.e e e e e L.L.e e e e L.L.L.L.L.0 $ q L.L.L.L.L.L.L.L.L.L.L.e e e e e L.L.L.L.L.L.L.",
"$ q q q q 0 0 0 0 q q q q q 0 q 0 0 0 0 0 0 0 q q q $ 0 0 0 q q 0 0 0 0 0 0 $ q 0 $ $ $ $ $ 8 8 $ $ $ 0 0 nXq nX$ q $ 0 0 0 $ q ",
"p a O s d f g g h h j j h g g yX0 $ 0 8X6X6X7X8XqXeXrXrXtXtXrXtXtXeXwXqX0X0X9X9X9X9X9X9X9X9X9X9X9X9X0XwXtX0 nX$ d O a O s d f g ",
"u i i i a d f f f f h g f f f j q 0 $ 6X3X3X4X6X9XwXeXrXrXrXrXrXrXwXqX0X8X8X7X7X7X7X7X7X7X8X8X8X8X8X0XwXyXq 0 q a u u i p O d f ",
"i i i p O d f f f g h j g g g j L.0 0 6X3X4X4X7X0XwXeXrXrXrXrXrXrXeXqXqX0X0X9X8X8X8X8X9X9X9X0XqX0X0XqXrXyXq 0 $ a i i i a s d f ",
"s s O O d d f f f h j k j j j k L.q 0 8X6X7X7X8XqXwXeXrXrXrXrXtXtXrXeXwXwXwXqX0X0X0XqX0X0XqXqXwXwXqXwXrXuXL.nX0 s p a O O d d f ",
"d d d d d f f f f h k l l l l l L.q 0 9X8X9X9X9XqXwXeXrXrXrXtXtXtXtXrXrXrXeXwXqXwXwXwXwXqXwXwXeXwXwXwXrXyXL.q 0 d s d d d d f f ",
"f d d f f f f f g j k l l z z z L.0 $ 0X0X0X0X0XqXeXeXrXrXrXtXtXtXtXtXtXrXrXeXeXeXeXeXwXwXwXeXrXeXwXeXrXyXe q 0 f d d d d d f f ",
"g f f f f f f f h j l l z z z kXL.0 $ qXqXqXqXwXeXrXrXrXrXrXtXtXyXyXyXyXyXtXrXrXrXrXeXrXrXrXrXrXrXrXrXtXuXe nX$ f f f f f f f g ",
"k j j j j j j j k l l z z z z kXq 0 $ rXeXrXrXrXtXtXyXyXyXyXyXyXyXuXuXuXuXuXuXyXyXyXtXyXyXyXyXuXyXyXyXuXpXe 0 q yXh h h h h j j ",
"L.L.L.e L.L.L.e e e L.L.L.e e L.q 0 q 0 q mXL.L.L.L.L.L.mXmXq q mXL.L.L.e e e e e L.L.L.e e e e L.L.L.L.L.q 0 $ 0 L.L.L.L.L.L.L.",
"$ $ 0 q q 0 $ q $ q 0 0 q q q q 0 0 $ 0 0 0 nXq nXq nXq nX0 0 0 $ q $ 0 nXq q q nXnX0 0 $ nXq q nX0 0 0 $ 0 $ q $ nXq nX$ 0 0 0 ",
"$ 6 5 5 6 6 7 8 8 $ $ $ $ $ $ 8 8 8 7 7 7 7 7 7 7 7 8 8 0 $ $ tXf f f g h j j j j k k k j k j j j h h h h h h h h h j j j j uX0 ",
"$ 5 4 4 4 5 6 8 8 8 8 8 8 8 8 8 7 7 7 6 5 5 5 5 5 5 7 8 q 0 $ f d d d f g h j j j j j j j j j h g g g f f f f f g g h h h j l L.",
"q 5 4 4 5 5 7 8 8 8 8 $ $ $ $ 8 8 8 8 7 6 6 6 6 5 6 8 $ L.0 $ f d d d f g h j j j j j j j j j j h h g g f f g g g g h h j j l L.",
"0 6 5 5 5 6 8 8 8 8 $ $ $ $ $ $ $ $ 8 8 7 7 7 7 7 8 8 0 L.$ 8 f f f f f h j j j j j k k k j j j j j h h g g h h h h h j j j l L.",
"0 7 6 6 6 7 8 8 8 8 $ $ $ 0 0 $ $ $ $ 8 8 8 8 8 8 8 $ 0 L.$ $ g f g g h j j j j j k k k k k k k j j j j h h h h h h j j j j l L.",
"$ 8 7 7 7 8 8 8 8 8 $ $ 0 0 0 0 0 $ $ $ $ 8 8 8 8 8 $ nXL.0 $ h g h h h j j j j j k k k k k k k k j j j j j j j j j j j j j l L.",
"0 8 8 8 8 8 $ $ 8 $ $ $ 0 0 0 0 0 0 0 0 $ $ $ $ $ $ $ nXL.q $ h h h j j j j j j k k l l l l l l l l k k j j j j j j k k j k l L.",
"0 $ $ $ $ $ $ $ $ $ 0 nXnXnXnXnXnXnXnXnXnX0 0 0 $ 0 nXq L.q $ uXj j k k k k k k l l l l l l l l l l l l l l l k l l l l l l z L.",
"0 0 q L.L.L.L.L.L.L.L.L.L.L.L.L.L.L.L.L.q q q L.L.L.L.L.L.0 0 0 L.L.L.L.L.L.L.L.e e e e e L.q q q L.e e e L.L.L.L.L.L.L.L.L.L.L.",
"$ $ $ $ $ 0 0 q 0 q q q 0 $ 8 8 $ $ $ 0 0 0 nXnXq q nXq q nX$ 0 0 0 $ q $ 0 $ 0 nXq nXq nX0 $ $ 0 0 nXq nX0 0 0 $ q $ 0 0 0 $ q ",
"d d d d d d f h k l kX0 q $ 9X7X7X7X7X0XwXeXrXrXrXrXrXrXrXeXqX0X0X9X9X9X9X9X0XwX0 $ $ f s O O s d g g g g h g g g g f f d d d d ",
"a a a a a O d f j l z q 0 q 7X5X4X4X5X8X0XwXwXwXwXeXeXeXeXwXwX0X8X7X7X7X7X7X8XwXq 0 $ s i i i p s f f f f f f f f f f d s O O O ",
"O a a a a O d f j l kXL.0 $ 7X5X5X5X7X8X0XqXqXqXwXeXeXrXrXeXeXqX0X9X8X8X8X9XqXrXq $ $ O p i i a d f f f f f f f f f f d d d s s ",
"s s O O O s d f j l kXL.0 q 9X8X8X8X8X9X0XqXqXwXrXrXrXtXrXrXrXeXwXqXqX0X0XqXeXyXq $ 8 s O O O s d f f f f f g h h g f f d d d d ",
"d d d s s d d g j l kXq 0 $ 0X0X0X0X0X0XqXqXwXwXrXyXyXyXyXtXrXrXeXwXwXqXqXqXeXyXq $ 8 d d d d d d f f f f g j j j j h f f f f f ",
"f f d d d d f h k z kXq 0 0 qXqXqXqXqXqXqXqXwXeXrXyXyXyXyXyXtXrXrXeXeXwXqXwXrXyXq 0 $ d d f f d f f f f f h j j j j j h g g f f ",
"g g f f f f f j l z kXq 0 0 eXwXwXwXwXwXwXwXwXrXtXyXuXuXuXuXyXyXtXrXrXeXeXeXrXuXL.0 $ f f f f f f f f f g j j j j j j j j j g g ",
"k j j h h h j k l kXkXL.0 0 rXtXrXrXrXrXtXrXrXtXyXuXiXiXiXiXiXuXuXyXyXtXtXtXyXiXL.0 0 yXh h h h h h g h j k l l l l l l l l k j ",
"L.L.L.L.L.L.L.L.L.L.L.L.0 $ 0 L.e e e e L.L.q q q L.e e e e e L.L.L.L.L.L.L.L.L.q 0 0 0 L.L.L.L.q q 0 q L.L.e e e L.L.L.L.L.L.L.",
"$ 0 $ q 0 q q 0 0 q q q q 0 0 q q q 0 0 0 0 0 $ $ 0 0 q q q $ 0 0 0 $ q 0 q 0 q 0 0 $ 0 $ q $ 0 $ $ 8 $ 0 0 0 q $ 0 $ 0 $ q $ q ",
"q yXg h g h h j j j j k k k k k j j j h h h h h h h h j j j j uXq $ q d O O O d f h j h h j j j h g f f d d d d d d d d d f g 0 ",
"$ f f f f f g h h j j j j j j j j h h g g f f f f g g g g h j j q 0 $ a u i i p d g h f f g h h g f f d s s O O a O O O s d g L.",
"0 g f f f f g h h h h j j j j j j j h h g g g g g h h h h h j k L.0 0 a i i p O d g h f f h j h h g f f d d s s O O s d d f h L.",
"0 h h h g g h h h h h j j k k j j j j j j h h h h j h h j j j k L.q 0 s a O s d f g h g g j j j j j g g f f f d d d d f f g j L.",
"q j j j j h h h h h j j l l l l k j j j j j j j j j j j j j j k L.q 0 d s d f f f g g g h j k k k j j h g f f f f f f f f g j L.",
"$ j j j j j j j h h j k l l l l l k k j j j j j j j j j j j j k e q $ d d f f g g g g g h j k k k k k j j g f f f f f f f g j L.",
"q j j j j j j j j j j k l l l l l l l l k k j j j j j j j j j l e q $ f f g g g g g g h j k k l l l l l k j h g g g f g h j k L.",
"$ uXl l k k k k k k l l l l z z z z z z l l l l l l l l l l l z L.0 $ yXh j j j j j j j k l l l l l l l l l l k j j j j j k pXL.",
"q 0 L.L.L.L.L.L.L.L.L.L.q q q L.e e e e L.L.L.e e e e L.L.e e L.L.0 q 0 L.L.L.L.L.L.e e e L.mXq mXL.e L.L.L.L.e e e L.L.L.L.L.L.",
"$ q $ q $ 0 $ 0 0 0 0 $ 8 8 $ 0 $ q $ 0 $ 0 nXq q q nX0 $ 0 0 q 0 0 $ q $ 0 0 0 0 0 0 0 0 0 $ $ $ 0 0 0 0 0 q mXe e mXq 0 0 $ 0 ",
"O O O s d f g h g g h j j h h g f yX0 $ 0 8X6X6X7X8XqXrXrXrXrXtXyXtXtXtXrXwXqX0X0X0X0X0X0XqXwX0 q $ d O O s d f j j j j j j j j ",
"p i i i a d f f f f g h h g g f f g L.0 0 6X3X3X4X6X9XeXeXeXrXrXyXyXtXtXrXeXqX8X8X7X7X7X8X0XeXq 0 $ a i i i a d f g g g g g g g ",
"O a p p O d f f f f g g g g g f f h L.0 0 6X3X4X5X7X0XeXeXeXrXtXyXyXyXyXtXrXwXqX0X9X9X9X0XwXtXmX0 $ O i i p O d f g g h h g f f ",
"d d d s d f f f f f g h g g g g g j L.0 nX8X7X7X7X9XwXeXeXeXrXtXyXuXuXyXtXrXeXwXwXwXwXwXeXrXuXL.0 $ d s s s d d f g h j h g f f ",
"f f f d f f f f f f h h h j j h g j L.0 nX0X9X0X0XwXeXeXeXeXrXyXuXuXuXyXtXrXeXeXeXrXrXeXrXtXiXL.0 $ f d f f f f f g h h h h h j ",
"f f f f f f f f f g h j j k k j j j L.0 nXqXqXwXwXeXeXeXeXrXtXyXuXuXuXyXtXrXrXeXeXrXrXrXrXyXiXL.0 0 f f f f f f f g h h h j j k ",
"f f g f f f f f f g h j l l l l k l L.0 0 wXwXeXeXeXeXeXeXrXtXyXuXuXuXuXyXyXrXrXeXrXrXrXrXyXiXL.q 0 f f g f f f f g h h h j k l ",
"h h g g g g g g g h j k l l l l l z L.0 $ eXeXeXeXeXeXrXrXrXyXyXuXuXuXuXuXuXyXtXrXrXrXrXtXyXiXL.q 0 g g h g g f g h j j j k l l ",
"l k j j j j j j j k l l z z z z z kXL.0 0 rXtXtXtXtXtXtXyXyXyXuXiXiXiXiXiXiXiXuXuXuXyXyXyXuXpXe 0 $ yXj k k j j j j k l l l z z ",
"L.L.L.L.L.L.L.L.L.L.L.L.L.L.L.L.L.L.L.0 $ 0 q mXmXL.L.L.L.L.L.L.L.L.L.L.L.L.L.e e e e e L.e e e q 0 0 L.L.L.L.L.L.e e e e e L.L.",
"q $ q $ q q q 0 0 0 0 0 $ $ q 0 0 0 0 $ $ $ $ $ 0 0 0 $ 0 0 0 $ 0 0 q 0 0 0 nXq q nXq q nX0 nXq nX$ 0 0 q $ 0 0 0 0 nXq nX0 0 0 "
};
