/* XPM */
static char *_435404957b64aebbf9fdcc55f1af649[] = {
/* columns rows colors chars-per-pixel */
"52 64 214 2 ",
"   c None",
".  c black",
"X  c #1F1106",
"o  c #26150A",
"O  c #291A0F",
"+  c #3E160D",
"@  c #281913",
"#  c #2D221A",
"$  c #26281E",
"%  c #382A1D",
"&  c #282824",
"*  c #3C2D21",
"=  c #352B29",
"-  c #37342B",
";  c #2F373A",
":  c #3D3C34",
">  c #393431",
",  c #402924",
"<  c #423125",
"1  c #433429",
"2  c #44392D",
"3  c #4B3A2D",
"4  c #483628",
"5  c #513E2E",
"6  c #50362D",
"7  c #473933",
"8  c #4E3E32",
"9  c #453E3B",
"0  c #413632",
"q  c #513E33",
"w  c #45433C",
"e  c #4D453B",
"r  c #544234",
"t  c #594535",
"y  c #5C4837",
"u  c #54453B",
"i  c #5A463A",
"p  c #55493E",
"a  c #5C4A3B",
"s  c #624D3C",
"d  c #65503E",
"f  c #6B533F",
"g  c #4C4541",
"h  c #494C42",
"j  c #4A4D47",
"k  c #514741",
"l  c #534B43",
"z  c #5C4E43",
"x  c #534E4B",
"c  c #535245",
"v  c #5C5145",
"b  c #565248",
"n  c #5C534C",
"m  c #5A5C4D",
"M  c #57584F",
"N  c #5E5C52",
"B  c #5A5C54",
"V  c #604F40",
"C  c #655242",
"Z  c #6A5544",
"A  c #6D5946",
"S  c #65544C",
"D  c #645B4A",
"F  c #6C5A4B",
"G  c #6C5648",
"H  c #725B46",
"J  c #735D4B",
"K  c #785F4A",
"L  c #6D5D51",
"P  c #655E59",
"I  c #655C55",
"U  c #735E51",
"Y  c #55644F",
"T  c #5E6354",
"R  c #76614E",
"E  c #7B624D",
"W  c #636355",
"Q  c #6A6354",
"!  c #65655B",
"~  c #6C655E",
"^  c #656B5D",
"/  c #6B6C5C",
"(  c #606A56",
")  c #746253",
"_  c #7C6552",
"`  c #7E6854",
"'  c #75655A",
"]  c #7C6759",
"[  c #736B5D",
"{  c #7C695A",
"}  c #6F715F",
"|  c #76735F",
" . c #6D6F63",
".. c #716D65",
"X. c #776A60",
"o. c #6E7262",
"O. c #6A7365",
"+. c #737464",
"@. c #7A7264",
"#. c #75726A",
"$. c #7B766A",
"%. c #747B6B",
"&. c #7C7C6D",
"*. c #777866",
"=. c #7B7D71",
"-. c #747570",
";. c #81664F",
":. c #816652",
">. c #836A55",
",. c #896E55",
"<. c #856D59",
"1. c #896F59",
"2. c #8B725C",
"3. c #8E7157",
"4. c #91765D",
"5. c #94785F",
"6. c #826D61",
"7. c #867264",
"8. c #8D7562",
"9. c #8F7864",
"0. c #8C7D6D",
"q. c #88776B",
"w. c #917761",
"e. c #947A63",
"r. c #997E65",
"t. c #947B6A",
"y. c #9A7F6A",
"u. c #807D73",
"i. c #907E70",
"p. c #7C816F",
"a. c #7C8273",
"s. c #7D8778",
"d. c #9C8066",
"f. c #9D826A",
"g. c #838275",
"h. c #838A75",
"j. c #82867A",
"k. c #838A79",
"l. c #8B8A7C",
"z. c #8F857C",
"x. c #938373",
"c. c #9B8473",
"v. c #9E8876",
"b. c #998C7C",
"n. c #89947E",
"m. c #96917F",
"M. c #A1856D",
"N. c #A5896E",
"B. c #A6876B",
"V. c #A28772",
"C. c #A58A73",
"Z. c #AA8D74",
"A. c #A38B7B",
"S. c #AA8E7A",
"D. c #AE9176",
"F. c #AD917B",
"G. c #B29376",
"H. c #B1937B",
"J. c #868B82",
"K. c #8B8D83",
"L. c #898F88",
"P. c #958B81",
"I. c #899383",
"U. c #8F9589",
"Y. c #949383",
"T. c #9D9582",
"R. c #9C9885",
"E. c #939B8F",
"W. c #9C9A8B",
"Q. c #929D86",
"!. c #979D94",
"~. c #A49483",
"^. c #AD9585",
"/. c #A59C8A",
"(. c #A99A88",
"). c #B39682",
"_. c #B59984",
"`. c #B49C8A",
"'. c #BA9E8A",
"]. c #AA9F94",
"[. c #A49C91",
"{. c #9CA38C",
"}. c #98A38B",
"|. c #9DA392",
" X c #9BA599",
".X c #9FAE96",
"XX c #A4A58F",
"oX c #ABA38E",
"OX c #BEA28D",
"+X c #B1A18D",
"@X c #A3A393",
"#X c #ACA493",
"$X c #A2A894",
"%X c #ADAB95",
"&X c #A4A79C",
"*X c #A3AC9C",
"=X c #A8AF9B",
"-X c #B4A492",
";X c #B5A995",
":X c #B6AC98",
">X c #ABB29B",
",X c #A6B1A3",
"<X c #ABB4A3",
"1X c #ACBAA5",
"2X c #AEB7A9",
"3X c #B2BCAB",
"4X c #B2BCA4",
"5X c #C3A58E",
"6X c #C8A88E",
"7X c #C6A792",
"8X c #C5A891",
"9X c #CBAB94",
"0X c #B5C4AD",
"qX c #B9C6B0",
/* pixels */
"                                                                                                        ",
"                                                                                                        ",
"                                                                                                        ",
"                                                                                                        ",
"                                                                                                        ",
"                                                                                                        ",
"                                                                                                        ",
"                                                                                                        ",
"                    #X;X+X`.).A.>X0X0X1X  ,X*X*X*X&X!.U.                                                ",
"                    ].;X-X`.`.^.S.$X0X3X2X3X3X3X2X,X XE.&XE.J.                                          ",
"                      oX:X(.^.y.t.~.1X<X>X=X=X<X3X2X X X XJ.J.L.                                        ",
"                        ^.(.y.7.t.~.$X$XR.m.K.|.<X,X,X.X!.J.J.J.s.                                      ",
"                        ~.P.8.t.c.~.[.W.@.S X.j.$X>X=X|.U.U.s.=.a.-.                                    ",
"                          z.i.A.~.~.].z.k . 9 =.|.>X}.p.a.s.k.a.O.-.-.                                  ",
"                              T.#X].].W.-.9 : =.$X{.h.&.u.q.$.&.%. .O.L.2X                              ",
"                                &X&X].].W.K.l.Y./.l.+.~ I e x ! O.! T s.}.I.s.n.                        ",
"                                  |.P.l.Y.W.|.@XP.&.#. .> . & b W M Y O.%.+.+.%.p.h.h.                  ",
"                                  0.+.m ( &.K.W.g.=.a.=.M g n ! N h h w % + 6 a D / *.+.+.o.^           ",
"                          `.t._ _ >.] T W } u.g.+. .%.k.u.u.u...x : & @ * q v F ) Q Q Q W T m T T       ",
"                        7X9XF.x.7._ C T Y ( +.*.m c Y ^ #.#.~ x = & 7 u u i C F R | | | +.*.%. .^       ",
"                        5X9X`.^.~.c.7.@.+./ Y c - $ - p m b l e k S ] 6.' n I [ | &.u.g.p.g.g.          ",
"                        5X8X).'.OX'.^.b.g.| D a z p c D F S S U <.7.q.9.{ Q Q ..+.*.*.*.g.              ",
"                        '.6XH.).`._.'.S.7.' 9.x.c.t.i.y.x.e.t.t.q.<.U G v                               ",
"                        '.6X_.`.).S.C.F R f.F.C.A.V.f.t.9.8.6.] U U S S z                               ",
"                          5X).F.S.V.8._ f.H.S.V.r.t.w.8.<.<.] U G G q k P                               ",
"                        )._.C.Z.V.w._ M.H.H.N.r.1.1.<.:._ ) U C u 8 1 z '                               ",
"                      v.V.V.y.C.y.<.1.H.S.f.r.7.>.>.:.U G C p r 1 < q C U ]                             ",
"                    2.1.3.w.e.S.V.t.Z.c.2.` >.R U J J G 1 # # * 8 V C s Z <.7.                          ",
"                M.M.,.:.,.4.3.Z.F.M.] q a <.w.>.:._ H a * r s C a t q s K <.] <.                        ",
"              B.Z.B.w._ :.e.w.e.w._ V y G >.1.J a i r 4 r C Z s q q d _ <._ U 1.8.                      ",
"            B.G.Z.Z.M.>.K 4.r.1.J Z G >.,._ G r 1 * < 6 d H d r t C :.2.<.Z C :.<.<.                    ",
"          Z.Z.Z.M.Z.B.e._ K r.y.w.2.4.4.>.E G t s s f H J R d s H >.r.7.Z i s q A 2.y.                  ",
"          Z.N.d.5.d.B.d.>.f 1.d.f.d.M.5.2.) C K _ 1.>.>.` f d E 1.r.f._ 8 r 5 s >.y.C.1.                ",
"          H.Z.y.5.5.3.d.5.E ,.N.N.N.D.d.1.Z f ,.1.2.<.E H A >.4.M.Z.8.Z 3 5 f E 3.y.B.y.                ",
"        H.D.Z.f.5.3.,.d.M.>.2.B.D.N.S.e._ J ;.r.1.1.>.R _ 2.d.N.Z.S.<.r 3 f 3.w.w.e.y.H.A.              ",
"      `.H.N.Z.f.3.1.E 5.d.2.5.N.D.Z.f.<._ >.5.r.1.>.` E e.B.C.Z.Z.Z._ 3 t E w.y.t.w.Z.H.A.P.            ",
"    7X7Xr.M.N.y.1.` H 1.d.d.3.N.D.C.t.1.` 4.d.r.1.2.2._ f.C.D.C.c.c.K 3 s 1.E 5.y.y.y.y.A.A.            ",
"    OX9XV.V.y.w.1.3.J ;.5.f.2.B.D.N.>.>.2.t.d.2.1.2.<.` C.Z.C.c.y.f.U 3 y ;.K E 5.y.y.t.y.v.c.          ",
"      _.H.Z.e.,.;.e.E E 4.f.f.N.D.d.E 1.8.f.f.>.2.w.<.` f.C.f.0.2.t.K 2 1 C s H w.y.t.t.t.7.'           ",
"        H.V.r.>.;.d.;.E 2.f.M.C.f.2.R <.8.e.w.` 2.r.3.E e.f.e.2.2.t.) 4 O 3 4 H y.C.8.] U z 9           ",
"          M.e.:.E f.>.` 2.d.f.N.d.E A >.1.4.2.R 4.d.2._ 4.d.9.2.2.t.E 3 X * < :.y.y.U 1 & ;             ",
"            <.J F f.>.` 3.e.d.f.4.R E >.<.2.<._ 4.d.2.>.4.e.2.>.4.d._ 3 O % q >.w.U > = w               ",
"            n.+.a x.>.` 1.e.e.d.9.) A >.2.<.` _ 5.5.3.,.4.4.{ >.r.r.R 2 X o r :._ p j B                 ",
"            .Xk.a f.1.` 1.5.2.d.4.R A ` <.<.` ` 4.3.>.3.9.1.` 1.r.t.R 3 > x u J G : l  .                ",
"          {.|.h.R Z.8.>.1.5.,.d.2.F Z ` ` ` ` ` 3.>.` ;.2.,.` ,.e.w.J 8 9 -.x a u * a T                 ",
"          Q.| ` v.F.e.` 1.e.4.M.1.s H _ ` _ R E ,.` E E E >._ ` 4.2.Z 8 >     e 7 : b +.                ",
"          {.+.v   M.4.` 1.d.d.f._ i E K ` ` R R >.E E ` ,.2.>.` 2.,.Z 8 =         B ..$.                ",
"          m.| Q   f.4.>.<.d.f.t.R s >.R _ R K E E H E 3.5.5.` E 2.>.H v                                 ",
"                Z.f.4.>.<.e.f.4.F f >._ _ E E E f E ;.5.d.,.` R >.:.)                                   ",
"                S.M.2.` 1.e.d.>.f d ` _ _ ` ;.E E ,.5.5.4.` F R K :._                                   ",
"              N.D.e.` R <.f.f.` d R ,.R ` 2.1._ 5.3.5.d.,.d s A A E _                                   ",
"              M.C.4.E ` 5.d.d.F A >.,.R 1.4.2.2.5.,.3.d.D r y d Z R ) L                                 ",
"            8.f.v.4.` ,.d.f.4.D _ e.5._ 4.e.1.4.d.,.E ` r r y a a C A Z z                               ",
"            d.f.f.4.` 2.d.f.>.E 9.f.5.>.d.e.>.4.d.,.H a r t d a y a d C a                               ",
"            M.D.d.,.1.d.f.d.>.2.f.C.8.<.e.9.>.4.f.d._ A A d d f d y i t i S                             ",
"            f.N.e.1.4.d.f.f.1.d.C.N.9.4.w.2.1.3.d.d.1.R f s s d f d y r r z S                           ",
"              4.d.e.d.f.f.d.e.f.Z.M.w.2.2.{ >.3.d.e.` d d A J J H A s a s a k                           ",
"                ` 4.e.f.M.d.f.N.N.f.2.<._ ` 1.2.d.1.Z t Z J R K R F z a s a e                           ",
"                  ` 4.5.4.d.N.v.f.e.<.>.) _ ` 3.4._ d a F R F Z D D p r i i g                           ",
"                          7.1.d.t.2.J <._ F _ :.1.E f a C C C S ) a x                                   ",
"                                x.7.f _ ` 2.0.<.` { ) Q C a v                                           ",
"                                  X.s K { 8.t.q.        a                                               ",
"                                    i                                                                   ",
"                                                                                                        "
};
