/* XPM */
static char *_578924177699[] = {
/* columns rows colors chars-per-pixel */
"64 37 129 2 ",
"   c #01060C",
".  c #06090E",
"X  c #0E0B0C",
"o  c #130C0B",
"O  c #1C100E",
"+  c #060A11",
"@  c #0A0C11",
"#  c #120E12",
"$  c #0E1116",
"%  c #141115",
"&  c #1C1414",
"*  c #17131A",
"=  c #191518",
"-  c #1D191D",
";  c #241614",
":  c #2B1714",
">  c #271817",
",  c #2A1916",
"<  c #231A1A",
"1  c #2B1C1A",
"2  c #321A15",
"3  c #3A1D17",
"4  c #341E1A",
"5  c #391F1B",
"6  c #34211E",
"7  c #3C221E",
"8  c #1C1D25",
"9  c #251E21",
"0  c #2C1F20",
"q  c #252124",
"w  c #2C2323",
"e  c #26262A",
"r  c #2B2729",
"t  c #2C2A2D",
"y  c #342524",
"u  c #3C2522",
"i  c #3E2926",
"p  c #322729",
"a  c #352B2C",
"s  c #3D2C2B",
"d  c #2B2731",
"f  c #2F2E33",
"g  c #302E32",
"h  c #3C2E32",
"j  c #343135",
"k  c #3A3234",
"l  c #35343A",
"z  c #3B363A",
"x  c #37383F",
"c  c #3D393B",
"v  c #42241E",
"b  c #432622",
"n  c #4B2722",
"m  c #432926",
"M  c #4C2B25",
"N  c #442D2A",
"B  c #4A2E2A",
"V  c #512C26",
"C  c #522F2A",
"Z  c #45302E",
"A  c #4C312E",
"S  c #51322E",
"D  c #453433",
"F  c #4B3432",
"G  c #4D3937",
"H  c #413739",
"J  c #45393A",
"K  c #4C3B3A",
"L  c #533633",
"P  c #5B3734",
"I  c #553936",
"U  c #533C3B",
"Y  c #5C3D3A",
"T  c #623E3A",
"R  c #5B403F",
"E  c #64413E",
"W  c #3D3D44",
"Q  c #413944",
"!  c #4A3B43",
"~  c #563E42",
"^  c #3F4047",
"/  c #3C414F",
"(  c #454047",
")  c #4C4143",
"_  c #43434A",
"`  c #4A464B",
"'  c #4A494E",
"]  c #544344",
"[  c #5B4445",
"{  c #544749",
"}  c #5C4349",
"|  c #524948",
" . c #494750",
".. c #4C4B54",
"X. c #4E4E59",
"o. c #504C53",
"O. c #5B4B56",
"+. c #4E505A",
"@. c #555257",
"#. c #5D5351",
"$. c #56535A",
"%. c #59575C",
"&. c #634443",
"*. c #694340",
"=. c #674846",
"-. c #634448",
";. c #6B4A4D",
":. c #724E4A",
">. c #61504E",
",. c #644851",
"<. c #65545B",
"1. c #6B5A5D",
"2. c #4D5262",
"3. c #505565",
"4. c #595B66",
"5. c #575C6A",
"6. c #645F60",
"7. c #5F626B",
"8. c #61646D",
"9. c #636570",
"0. c #686670",
"q. c #676A73",
"w. c #6A6B74",
"e. c #777376",
"r. c #6E7482",
"t. c #747882",
"y. c #797C86",
"u. c #787D89",
"i. c #848892",
/* pixels */
"                                                                                                                                ",
"                                                                                                                                ",
"                                                                                                                                ",
"                                                                                                                                ",
"                                                    + $ - 9 9 9 < < = * # .                                                     ",
"                                                  p ~ N ! ~ { { c h r w 1 w g @                                                 ",
"                                                8 X.0.y.6.i.u.q...7.5....._ ` h                                                 ",
"                                                W 2.$.6.~ } ! ~ F ~ 9 a a z Q $.+                                               ",
"                                                Q ~ a =.Y Y I :.I =.< u N p D J -                                               ",
"                                              8 ,.;.p i F N D Z u F & y u p Z R c                                               ",
"                                              d O.<.' ..$.%.%.%.o. .W c l j l R |                                               ",
"                                              2.5.r.u.7.8.y.t.w.( 9.5.X.f ....' e.$                                             ",
"                                            . 3... .` H ] ! g w w k w q < q j c 8.q                                             ",
"                                              ! -.F ~ P =.I Z 6 B I 1 y b 6 a R #.t                                             ",
"                                            + ~ -.K &.T E F Y m T E , N B B s K >.c                                             ",
"                                            % ~ &.I =.T &.F I m 7 Y 1 m C M s D D c                                             ",
"                                            * U ~ I [ P Y F N 5 O m 4 i V m y Z D c                                             ",
"                                            * U Z G B 4 B F s : ; m 1 7 M i w i R k                                             ",
"                                            * N , D L u I L m : y R , i 7 b y R N q                                             ",
"                                            % A y F U E T L S 4 7 R , i M b w M Z w                                             ",
"                                            # L A 4 U I T A C 7 B R ; 7 M 7 1 B A w                                             ",
"                                            @ A F i I F A , V 7 M A , 6 7 7 < Z N q                                             ",
"                                            . b P m S S M ; n v M B , 7 4 u & i y <                                             ",
"                                              1 L , S V B N V M M M , 7 6 7 < i y $                                             ",
"                                              g 9 9 y ; m 6 4 v M 7 ; 1 6 1 & y c @                                             ",
"                                              f W W Q j f l t t w r t e w t c k `                                               ",
"                                              & s z W W l ^ W W e l l f q g j g w                                               ",
"                                              + u v ; 4 : 6 - > , ; & O , 1 6 s =                                               ",
"                                                1 u 1 3 2 n , 4 3 2 o 2 7 1 i y .                                               ",
"                                                8 W a s : v , ; : 7 o O > q a g                                                 ",
"                                                . p z W t z l a q j f t t j r $                                                 ",
"                                                  # u 5 y Z k t q a w w w < O .                                                 ",
"                                                      o & , ; ; O ; O & X .                                                     ",
"                                                                  .     . .                                                     ",
"                                                                                                                                ",
"                                                                                                                                ",
"                                                                                                                                "
};
