/* XPM */
static char *_e766c4051194cac8c61485f03a65291[] = {
/* columns rows colors chars-per-pixel */
"64 64 256 2 ",
"   c black",
".  c #0000A8",
"X  c #00A800",
"o  c #00A8A8",
"O  c #A80000",
"+  c #A800A8",
"@  c #A85400",
"#  c gray66",
"$  c gray33",
"%  c #5454FC",
"&  c #54FC54",
"*  c #54FCFC",
"=  c #FC5454",
"-  c #FC54FC",
";  c #FCFC54",
":  c gray99",
">  c #ECECEC",
",  c gainsboro",
"<  c #D0D0D0",
"1  c #C0C0C0",
"2  c #B4B4B4",
"3  c gray66",
"4  c #989898",
"5  c gray55",
"6  c #7C7C7C",
"7  c gray44",
"8  c #646464",
"9  c gray33",
"0  c #484848",
"q  c gray22",
"w  c #2C2C2C",
"e  c #202020",
"r  c #FC0000",
"t  c #EC0000",
"y  c #E00000",
"u  c #D40000",
"i  c #C80000",
"p  c #BC0000",
"a  c #B00000",
"s  c #A40000",
"d  c #980000",
"f  c #880000",
"g  c #7C0000",
"h  c #700000",
"j  c #640000",
"k  c #580000",
"l  c #4C0000",
"z  c #400000",
"x  c #FCD8D8",
"c  c #FCB8B8",
"v  c #FC9C9C",
"b  c #FC7C7C",
"n  c #FC5C5C",
"m  c #FC4040",
"M  c #FC2020",
"N  c #FC0000",
"B  c #FCA85C",
"V  c #FC9840",
"C  c #FC8820",
"Z  c #FC7800",
"A  c #E46C00",
"S  c #CC6000",
"D  c #B45400",
"F  c #9C4C00",
"G  c #FCFCD8",
"H  c #FCFCB8",
"J  c #FCFC9C",
"K  c #FCFC7C",
"L  c #FCF85C",
"P  c #FCF440",
"I  c #FCF420",
"U  c #FCF400",
"Y  c #E4D800",
"T  c #CCC400",
"R  c #B4AC00",
"E  c #9C9C00",
"W  c #848400",
"Q  c #706C00",
"!  c #585400",
"~  c #404000",
"^  c #D0FC5C",
"/  c #C4FC40",
"(  c #B4FC20",
")  c #A0FC00",
"_  c #90E400",
"`  c #80CC00",
"'  c #74B400",
"]  c #609C00",
"[  c #D8FCD8",
"{  c #BCFCB8",
"}  c #9CFC9C",
"|  c #80FC7C",
" . c #60FC5C",
".. c #40FC40",
"X. c #20FC20",
"o. c #00FC00",
"O. c #00FC00",
"+. c #00EC00",
"@. c #00E000",
"#. c #00D400",
"$. c #04C800",
"%. c #04BC00",
"&. c #04B000",
"*. c #04A400",
"=. c #049800",
"-. c #048800",
";. c #047C00",
":. c #047000",
">. c #046400",
",. c #045800",
"<. c #044C00",
"1. c #044000",
"2. c #D8FCFC",
"3. c #B8FCFC",
"4. c #9CFCFC",
"5. c #7CFCF8",
"6. c #5CFCFC",
"7. c #40FCFC",
"8. c #20FCFC",
"9. c #00FCFC",
"0. c #00E4E4",
"q. c #00CCCC",
"w. c #00B4B4",
"e. c #009C9C",
"r. c #008484",
"t. c #007070",
"y. c #005858",
"u. c #004040",
"i. c #5CBCFC",
"p. c #40B0FC",
"a. c #20A8FC",
"s. c #009CFC",
"d. c #008CE4",
"f. c #007CCC",
"g. c #006CB4",
"h. c #005C9C",
"j. c #D8D8FC",
"k. c #B8BCFC",
"l. c #9C9CFC",
"z. c #7C80FC",
"x. c #5C60FC",
"c. c #4040FC",
"v. c #2024FC",
"b. c #0004FC",
"n. c #0000FC",
"m. c #0000EC",
"M. c #0000E0",
"N. c #0000D4",
"B. c #0000C8",
"V. c #0000BC",
"C. c #0000B0",
"Z. c #0000A4",
"A. c #000098",
"S. c #000088",
"D. c #00007C",
"F. c #000070",
"G. c #000064",
"H. c #000058",
"J. c #00004C",
"K. c #000040",
"L. c #282828",
"P. c #FCE034",
"I. c #FCD424",
"U. c #FCCC18",
"Y. c #FCC008",
"T. c #FCB400",
"R. c #B420FC",
"E. c #A800FC",
"W. c #9800E4",
"Q. c #8000CC",
"!. c #7400B4",
"~. c #60009C",
"^. c #500084",
"/. c #440070",
"(. c #340058",
"). c #280040",
"_. c #FCD8FC",
"`. c #FCB8FC",
"'. c #FC9CFC",
"]. c #FC7CFC",
"[. c #FC5CFC",
"{. c #FC40FC",
"}. c #FC20FC",
"|. c #FC00FC",
" X c #E000E4",
".X c #C800CC",
"XX c #B400B4",
"oX c #9C009C",
"OX c #840084",
"+X c #6C0070",
"@X c #580058",
"#X c #400040",
"$X c #FCE8DC",
"%X c #FCE0D0",
"&X c #FCD8C4",
"*X c #FCD4BC",
"=X c #FCCCB0",
"-X c #FCC4A4",
";X c #FCBC9C",
":X c #FCB890",
">X c #FCB080",
",X c #FCA470",
"<X c #FC9C60",
"1X c #F0945C",
"2X c #E88C58",
"3X c #DC8854",
"4X c #D08050",
"5X c #C87C4C",
"6X c #BC7848",
"7X c #B47044",
"8X c #A86840",
"9X c #A0643C",
"0X c #9C6038",
"qX c #905C34",
"wX c #885830",
"eX c #80502C",
"rX c #744C28",
"tX c #6C4824",
"yX c #5C4020",
"uX c #543C1C",
"iX c #483818",
"pX c #403018",
"aX c #382C14",
"sX c #28200C",
"dX c #600064",
"fX c #006464",
"gX c #006060",
"hX c #00001C",
"jX c #00002C",
"kX c #302410",
"lX c #480048",
"zX c #500050",
"xX c #000034",
"cX c gray11",
"vX c #4C4C4C",
"bX c gray36",
"nX c gray25",
"mX c gray19",
"MX c #343434",
"NX c #D8F4F4",
"BX c #B8E8E8",
"VX c #9CDCDC",
"CX c #74C8C8",
"ZX c #48C0C0",
"AX c #20B4B4",
"SX c #20B0B0",
"DX c #00A4A4",
"FX c #009898",
"GX c #008C8C",
"HX c #008484",
"JX c #007C7C",
"KX c #007878",
"LX c #007474",
"PX c #007070",
"IX c #006C6C",
"UX c #980088",
/* pixels */
"e w MXnXq vXMXnXw w e e cX  cXcX  e e MXq nXq q MXMXw MXw q w q MXq MXq w q q w w w w e e cXcX    cXe q nXnXq q q MXe w e q w q ",
"q 0 q 0 vXnX0 q q nXnXnXq MXw MX  w q e nXvXbXvX0 0 0 0 vXMXvX0 vXnX0 $ vXnXvXq q nX0 0 w nXq w   w q $ 0 0 bXvXnX0 0 nX$ q 0 q ",
"8 $ 7 bXbX8 bXbX$ bXbXvXbXnXMXe cXnX0 vX$ vX$ $ $ 8 8 8 vX8 $ $ 7 bX7 $ bXbXbX8 vX$ $ $ 8 nXMXw cXq 0 vX$ bX$ $ nXbX$ $ vXbX0 bX",
"7 6 7 7 6 5 6 4 6 7 8 6 8 $ q nXe w 0 $ 8 7 7 8 8 7 7 4 4 8 8 7 6 5 6 7 6 4 6 6 6 6 7 6 7 vXnXnXe q 0 $ bX7 7 bXbX7 8 7 6 $ bX7 ",
"7 7 7 6 7 6 5 5 # 5 5 4 5 8 bXnXe e 0 7 7 bX$ $ $ 8 7 6 6 7 7 7 7 7 7 7 6 6 5 # # 4 5 4 4 6 $ nXe MXnXbX7 $ vXvX$ $ 7 7 7 bX7 7 ",
"7 7 7 8 7 7 7 4 4 4 5 4 6 7 0 nXcXq vX0 8 vXvXvX$ bX8 8 7 8 $ bX7 7 8 bX7 5 7 4 # # 4 4 4 6 q nX  q vXvXbXvX0 0 vX0 vX8 7 bXbX8 ",
"bX7 8 7 8 8 7 7 5 6 6 4 4 7 vXnXcXnX0 vXvX$ $ bX$ 8 vX$ bXvX$ bX8 6 bXbX$ bX7 7 5 4 5 # 4 7 vX$ cXnX0 0 $ 0 0 vX0 nXvXvXbXvX$ $ ",
"8 8 7 8 7 8 8 6 7 6 6 7 6 7 $ 0 w w q vX$ vX0 vX7 bXbX8 8 bXbXbX7 8 8 vX$ $ $ 7 6 6 7 7 4 8 vXnXcXe MX0 vXvXvXvX7 8 bX8 $ $ bX$ ",
"$ bX7 7 8 bXbXbX6 5 7 6 6 6 7 MX  w MXw q 0 vX$ bX8 vXvX$ bXbXbX8 $ bXbXbX0 0 $ 8 8 $ 7 7 6 $ q   e q nXq vXbXbX8 7 vXvXq nXnX0 ",
"7 7 8 bXbXvXbX$ 7 7 6 7 7 6 nX0   cXcXw q 0 nXvX$ $ vX0 vX$ 8 bXbXvX$ $ 8 vXvX$ 0 vXvXbX7 7 vXnX  e w MXMX$ bX8 8 bX$ nXq e vX$ ",
"bX7 8 bXbX$ bXvXbX7 7 bX$ bXvXbX    cXe MX0 nXvX0 0 vX0 0 $ 8 $ 0 0 vXvX8 $ vXnXnXq nX$ 8 8 0 $     cXcXq 0 vX$ vX$ q q MXMXvXbX",
"vX7 8 bX8 bX$ 0 bX7 7 8 $ 0 nXq       e w MXMX0 nXq MX0 vX0 0 0 0 MXnX0 8 7 vXnX0 0 nXvXvX$ nXq   cXcXe MXnXnXvX0 q w MXw e 0 0 ",
"bX8 8 0 vXbXq nX0 q $ bXbX0 0 MX  cX  cXMXMXq nXq w q q q q 0 nXq q q vXbX$ $ nXnXq vXnXq 0 0 e   cXcXcXq q nXq q cXMXq MXMX0 0 ",
"nXvX$ 0 vXnX0 nXMXMXq $ q 0 0 q       w w MXnXMXw e cXw 0 q q nXq 0 q 0 0 vXvXq q e MXMXnXq nXw   cX  MXe q q w MXcXe q q q q q ",
"nXq nX0 q nXnXMXw w e w q 0 q e         cXw cXw w w MXw MXq nXnX0 q 0 0 nXq nXnXw cXe cXMXMXq e     cXcXw w w e MXw e e w w w MX",
"cXcXw MXw MXMXcXe cXcXcXe e             cXcXcXcXcXe e w w w e w cXw q q MXw MXe MXe cXcXcXw cXcX      e cXcXcXcXcXcXe   e cXcXw ",
"                                                      cX  cX              cX  cX  cX                                            ",
"  cXw w e q MXw w w q e w w   cXcXcXe MXcXq w w q cXw q MXcXe       e e e nXMXMXMXMXMXMXw w e w w w w w w q cXw w e w q cXe e   ",
"  e w q nX0 nX0 nXq nXq MXq MXMXq w 0 w q MXw nXq 0 MX0 q q cXcX  e e nXnX0 0 vX0 q nXq q w MX0 q w MXMXq nXq vXMXnXq vXq MXw e ",
"cXw q q 0 $ vXbXvX0 0 $ vXvX0 $ vXvX$ vXbX0 bXvX$ $ $ 0 0 vXnXcX  w MXq 0 vXvXbXvX0 vXvX0 $ vX8 $ vXvX8 vX8 8 $ 8 $ $ $ 0 vXq cX",
"  cXq vX0 bXbX8 $ bXvX7 vX$ 7 7 $ 8 bX8 8 bXbX7 8 bX7 7 8 vXnXMX  e q vXvXbX$ 8 0 vXbX8 vX7 7 6 7 7 8 7 6 5 4 6 7 5 6 4 6 bX0 q ",
"  w nX0 $ $ $ bX$ bX0 bX$ 8 8 6 7 7 8 6 7 8 6 5 6 6 7 7 7 $ 0 MX  q nX0 $ vX$ $ bX$ vX7 bX7 7 7 8 6 6 7 8 4 4 2 # 4 4 5 6 8 0 q ",
"cXMX0 0 vXvX0 $ q q 0 vX0 vX8 7 bXbX7 bXbX7 7 6 6 8 6 6 7 bXvXMX  MXnX$ 8 8 0 7 0 bX7 8 bX8 8 7 6 8 6 8 bXbX6 4 5 4 5 4 4 7 vXw ",
"  e MX0 vXvXvX$ vXnX0 0 nXq 0 $ vXvXvXvXvX$ 7 8 6 7 5 6 6 7 nXq   w MXvX$ 7 7 6 8 bXbXbXvXbX8 7 6 6 7 8 8 7 7 6 6 4 4 6 4 7 0 nX",
"cXe MXq nX$ vX$ vX0 nXq q nX0 0 q $ 0 $ bX8 8 7 7 8 5 6 6 7 vXw   w MX0 bX7 7 6 6 7 $ bXvXbX7 6 4 6 6 8 6 8 8 7 5 5 7 7 6 7 0 w ",
"  cXMXMXq 0 vXnX$ q 0 q MXw q MXMXnX0 0 vX0 bX7 7 6 6 8 7 7 $ MXcXcXw q $ 8 8 7 8 7 8 8 vX0 8 7 6 7 7 7 bX8 7 $ $ 6 8 6 $ 7 $ e ",
"cX  cXMXq 0 q 0 0 q q e e cXq w MXMXMX$ nX0 vX8 6 7 7 7 8 8 0 q cXcXe 0 vX8 $ bX$ $ $ vXvXnX0 0 bXvX$ 8 bX$ vXvX8 0 0 bX8 6 0 MX",
"  cXcXw q q 0 vXvXnXq w q w w e MXw w q q 0 vXvXbX7 7 7 8 vX0 w cXcXcXw q vXvX$ bX$ vXMX0 q q 0 bX0 0 $ nX0 nXvXnX0 bXbX8 $ nXq ",
"  cXe MXq nXvX0 nXnXnXMXe w w cXcXcXe MXMXq q 0 $ $ 8 8 vX0 nXw   cXe MXw nXvX0 0 nXq nXw e MXMXnXq MXnXMXnXnX0 $ $ bX7 vX0 nXMX",
"    cXe MXq 0 0 0 nXnXq MXcXe cXcX  e w MXnXnXvX0 $ vX$ vX$ nXMX    MXe nXq 0 nXnXMXnXq e cXw cXcXe cXMXMXq vX$ vXvXvX$ vXvXnXe ",
"    cXcXe cXMXq MXnXMXMXe cXcXcX  cXcXcXe w e MXq nX0 $ q w MXcX      cXe w MXq w w MXMXw w cXw cXcXcXe w w e w MX0 vX0 nXq q MX",
"          cXcXw e cXcXcXw cX  cX  cXcXe cXcXcXMXq w MXw w MXe             e e e w e e cXcX  cX    cXcXcXcXcXe MXnXw w MXMXMXcXe ",
"            cXcX    cX                  cX  cXe e cXe cXe cX              cX  cX  cX  cXcX            cXw cXcXcXe e cXw cXcX    ",
"0 0 0 vXvXnX0 MXnXnX0 0 MXnXw e   w q $ 0 0 bXvXnX0 0 nX$ q 0 q q 0 q 0 vXnX0 q q nXnXnXq MXw w   e q vXq vXbXvX0 0 0 0 nXq 0 vX",
"8 $ 7 bX$ $ $ bX$ $ bXvXbXq w MXcXq 0 vX$ bX$ $ nXbX$ $ vXbX0 bX8 $ 7 bXbX8 bXbX$ bXbXvXbXnXMXe cXw 0 0 bXvX$ $ vXbX7 $ vXbX$ vX",
"6 6 7 7 7 5 6 4 7 6 8 6 7 $ q 0 e q 0 $ bX7 7 bXbX7 8 7 6 $ bX7 7 6 7 7 6 5 6 6 6 7 8 6 8 $ q nXw MXq $ vX7 7 8 bX7 7 6 5 8 7 7 ",
"7 7 7 7 6 6 4 4 # 4 5 4 4 bX$ nXe MXnXbX7 $ vXvX$ $ 7 7 7 bX7 7 7 7 7 6 7 6 6 4 4 5 5 4 5 8 bXnXcXMX0 8 7 vXbX$ nXbX8 6 6 bX7 7 ",
"7 7 8 8 7 7 6 4 4 6 4 6 6 7 q nX  q vXvXbXvX0 0 vX0 vX8 7 bXbX8 7 7 7 8 7 7 6 5 4 4 6 6 6 7 0 nXcXq $ vXbXvXvX0 vXbX8 8 7 8 $ bX",
"8 8 bXbXvXvX8 7 7 6 4 4 6 7 vX0 cXnX0 0 $ 0 0 vX0 nXvXvXbXvX$ $ bX7 8 7 8 8 7 7 5 5 6 5 4 7 vXnXcXq nX$ $ 0 $ $ $ vX$ $ $ vX$ bX",
"bXbXbXvXvX$ vX7 7 6 7 6 6 7 bX0 cXe MX0 vXvXvXvX7 8 bX8 $ $ bX$ 8 8 7 8 7 8 8 6 7 6 6 7 6 7 $ 0 cXe q nXvXvX$ $ 7 8 $ bXbX$ $ $ ",
"$ $ $ bX$ vX0 $ bX8 $ $ 7 6 8 nX  e q nXq vXbXbX8 7 vXvXq nXnX0 $ bX7 7 8 bXbXbX6 5 7 6 6 6 7 MX  cXq q nXnX0 bX$ vXvX0 $ bXbX$ ",
"$ vX$ $ $ vXvX0 0 vX$ bX7 7 nX0   e w MXMX$ bX8 8 bX$ nXq e vX$ 7 7 8 bXbXvXbX$ 7 7 6 7 7 6 nX0   cXe w q 0 vXvXvX$ vXnX0 $ 8 $ ",
"nX0 0 $ bXbXvX0 0 nX0 vXbX$ vXvX    cXcXq 0 vX$ vX$ q q MXMXvXbXbX7 8 bXbX$ bXvXbX7 7 bX$ bXvX8   e cXe q nX0 vXnXnX0 0 vX0 bXbX",
"nXq 0 vX8 8 vXq nXnXnX0 $ vXnX0   cXcXe MXnXnXvX0 q w MXw e 0 0 vX7 8 bX8 bX$ 0 bX7 7 8 $ 0 nXq cX    cXw MXq q 0 q q 0 nX0 nXnX",
"q MX0 vXbX$ vXq q q nXnX0 0 vXq   cXcXcXq q nXq q cXMXq MXMX0 0 bX8 8 0 vXbXq nX0 q $ bXbX0 0 MX    cXcXMXMXq MXq MXMXMXMXMXq q ",
"q 0 0 vXnX0 nXnXMXMXe q nXnX0 q   cX  MXe q q w MXcXe q q q q q nXvX$ 0 vXnX0 nXMXMXq $ q 0 0 q       e e MXMXMXMXe cXMXnXq nXnX",
"nXnXnX0 nXq nXMXw w e e MXMXq cX    cXcXw w w e MXw e e w w w MXnXq nX0 q nXnXMXw w e w q 0 q MX    cX  cXMXw w MXe MXe q q q q ",
"cXw q q MXMXMXe e   cXcXe w cXcX      e cXcXcXcXcXcXe   e cXcXw cXcXw MXw MXMXcXe cXcXcXe e   cX      cXcXcXe   cXe w e MXe e w ",
"        cXcX  cX                                                      cX                                                  cX    ",
"  cXw MXw q e e MXMXw e w MX  MXcXw w MXe MXw w w cXw MXe w e   cXMXq vX8 vXbXvX0 0 0 0 0 q 0 0 vXnXnX$ 0 nX0 q q nX0 0 w q MXe ",
"  w w MXnXnXnXq q nXMXnXq q MXnXMXq q w q MXq nXw 0 q 0 q e cXcX  nX0 vX8 bXvX$ vXbX7 bX0 8 $ $ bXbX7 $ bX8 vXbX$ bXbX$ $ nXMXw ",
"  w q q 0 vXnXnXnXnX0 vX$ vX$ 7 vX$ vXbX8 0 $ vX$ vX$ vXnX0 MXcXcXnXq $ 8 8 7 8 bX7 7 4 5 8 7 7 6 5 7 7 6 5 6 5 6 6 8 6 7 $ 0 nX",
"  e MXvX0 $ bX$ q q nXbXvXbX6 6 7 7 $ 8 7 bX8 8 8 8 7 7 $ vXq w cXq 0 8 7 $ $ $ bX$ 7 6 6 7 7 7 7 7 7 7 7 6 5 4 4 4 5 4 4 8 bXnX",
"  w nX0 $ $ bXvXvXvXq bXnXvXvX8 8 $ bX5 6 7 6 4 5 6 7 bX8 vX0 MXcXq vX0 bXvX0 0 $ $ 7 8 6 bXbX$ 7 7 8 8 7 7 6 5 4 4 4 6 4 7 0 nX",
"  w 0 q vXvXnXbXnXvX0 0 nXq vXbXvX$ 8 bXbX8 7 6 7 7 6 7 7 bXvXw cXnX0 $ vXvXbX$ vX$ $ $ 8 vXbXbX8 7 bXbX$ $ 7 7 5 6 5 4 4 7 0 0 ",
"  w MX0 vXbXvXvXvXq vX$ vXbXbXbX$ vXvXvX$ $ 7 bX6 6 4 6 6 8 nXnX  w nX0 vXvX$ $ 8 8 $ bXbXvXvXbX8 8 8 0 $ $ $ 7 8 6 7 6 5 7 $ 0 ",
"  w w MXnXvXvX0 0 vXnX$ 8 7 6 8 8 7 $ $ $ bX7 6 7 7 4 6 5 7 0 w   cXq w 0 0 0 $ bXvX0 0 $ bXbX$ $ $ bXbXbX0 0 $ bXbXbX8 6 6 bXnX",
"  cXw MXq q vXvX0 q nX0 $ 8 bX7 $ $ bX7 7 $ 8 7 8 7 6 bX6 7 vXw   cXw MXq 0 vX0 $ $ 0 0 0 bX8 $ $ 0 $ $ $ vXvX0 0 $ $ bX8 6 vXnX",
"cXcXe MXnX$ vX0 vXq q 0 0 $ bX8 7 7 7 4 6 7 8 6 7 bX7 7 8 7 vXq     e w MXMXnX0 vXnX0 vXnX0 8 0 0 0 0 vX8 bXvXq 0 q q vXbXbXvX$ ",
"  cXe w nX0 $ bX7 vXq q 0 vX0 vX$ vX7 6 8 7 7 8 bX7 8 7 8 $ 0 MX  cX  e w e 0 q q MXMX0 nXnX0 0 nXMX0 vXbX8 vXq 0 0 0 0 $ vXvXq ",
"  cXcXq 0 nX8 bXbX8 0 0 w 0 0 0 vX$ 0 $ $ bX8 8 0 $ bX8 $ 0 0 w   cXcXe w MXnXe MXw nXnXq q q q q q 0 vX8 $ nXq MXq q q nX0 nXcX",
"  cXw nX0 vXvXbXvX0 q nXw w nXnXnXq nXMXe nXq nXnX$ 0 vXvXq vXq   cXcXe e MXw w w cXe nXnXq MXq MXnXq vX0 0 0 nXMXcXq q q nX0 w ",
"  cXcXe MX0 nX0 q q MXw e MXcXe cXMXcX  w q e MXq nX0 q nXq q e       cXcXq e w w e q e e MXq q nXq 0 vXnXnXnXq MXw e e w MXMX  ",
"      cXcXw e cXe cXe cXMXcXcXcXcXcX  w cXcXcXMXq w MXw MXe w         cX  cX  cX  cXw cXw e e e cXcXMXq MXMXMXcXe cXe cXcXw e cX"
};
