/* XPM */
static char *_f83d084dca741b591e78a770083d97e[] = {
/* columns rows colors chars-per-pixel */
"48 63 27 1 ",
"  c #980088",
". c gray33",
"X c gray66",
"o c gray55",
"O c gray44",
"+ c gray22",
"@ c #D0D0D0",
"# c #646464",
"$ c #989898",
"% c #202020",
"& c #B4B4B4",
"* c #4C4C4C",
"= c #343434",
"- c #484848",
"; c gray11",
": c gray25",
"> c #7C7C7C",
", c #2C2C2C",
"< c #FC4040",
"1 c #FC5454",
"2 c #FC2020",
"3 c #FC7C7C",
"4 c #EC0000",
"5 c #D40000",
"6 c #FC9C9C",
"7 c #BC0000",
"8 c black",
/* pixels */
"                 .                  Xo          ",
"               OO+OO           .    o@o         ",
"             #$XX%ooo#         .     X@         ",
"            #$XX&ooooO*        .    oO@o        ",
"            o$XXoX#OO==       -.-   OOXX        ",
"            oXXoXX$#%%;       -.-   O.X@        ",
"           XOoo&#X:o#;;>      -.=  O-.X@        ",
"           .o>X&+X%o+=,#     .-.OOO--.X@        ",
"           >&>#&+X%o:=,*    ..-.-----.X@        ",
"           ,&>*&+X%o%=,;    .--....--.X@        ",
"            X>#&+X%o:=#    .-+-.==..-.X@        ",
"            #XX&#X:o+=#    .+=-.-+=-..X@        ",
"            +#>oXX$>>#+    .= -.--==..X@        ",
"            +X#######:+    +  -.,,+=-.X@        ",
"       #$$$XX>X@XXo::,,::     -., ,=+.X@        ",
"    #XX$XXX@@X>>#**,,,+++%:+::-.,  ==.XX        ",
"   o&&.-XX@@&X&XXX...-+===,+,,-.,   =XXo        ",
"  #&@&.-&&@&XX@X&--...-+==,;+--.,   =XX         ",
"  o&&.-&X$@XX@@oX+-...-+=,,;==-.,,  .XX         ",
"  o&X-&@<$$$$@@oX+-...-+=,%;..-.,,  oXo         ",
"  #&#&@1<2#$$ooooo--..-+=,%;**-.,,  oX          ",
"o#&#&@31<2455##>>O%----+=%,;;;-.,%  Xo          ",
"  #:&631<2455777>O%,==,,%%%;%%-.,%%             ",
"  oO&631<2455777>O,,;;;;;,;;=--.,%              ",
"  oX&631<2455777>O;;%;;%%;8;=--.,%              ",
"  oX&631<2455777>O;%=,;+,; ,=--.,%              ",
"  XX&631<2455777>O,%=,%+,; ,==-.,=%             ",
" XX-X631<2455777>O,%=,%+,; =-.$$,,%             ",
"XX-XX631<2455777>O%%,%%+;   -XX-+,;%            ",
"Xo+#X631<2455777>O%%%%%:;   -$$++,;%            ",
"Xo++X631<2455777>O;,++==:;  -X$-+,;%            ",
"Xo%OX631<2455777>O;,--+=,%;  X$-+,;%            ",
" ##%X631<2455777>O%,---+,%;  ---;;%             ",
"  ##X631<2455777>O,,,,%%;;   ,,,,=              ",
"    X631<2455777>O%%;;;;;,    =,,               ",
"     X31<2455777>O%,+%%%;,    -+,               ",
"     X31<245577#O;,%,,*%;,    -.,               ",
"     X61<245577oO;+,=,*%;,    -.,               ",
"      X1<24557#O%;+,=,*%;,    ..,               ",
"       X<2455#O%%;+,=,*%;,    ..,               ",
"        X245oO,%%;%,=,*%;,    .-%               ",
"         ooo,,,%%;%,=,*%;,    .-%               ",
"         ..-+,,%;;%,==+%;,    .+%               ",
"         XX.+=,%;;%,=+.,%,    -+%               ",
"         XO.+=,,;+,=--.+%;;   -=;               ",
"        XO..+==,%+=--..+,%;   -=;               ",
"        -======,%+%,,,%%%;;  -$$-,              ",
"         -,,%%%;;%;;;;;;;;   -..-,              ",
"          .-==,,%%=++,,,%     -=;               ",
"          .o.-==%%+..-,,%    -$.-,              ",
"          .o@.==%%+..$,,%    -..-,              ",
"          .o@.=,%%+..#,%      -=;               ",
"          -.@X=,%%=OX=,%     -$.-,              ",
"           ...=,%%===-,%     -..-,              ",
"           ..+,,;,=-.=%;      -=;               ",
"           -O.,%;,===+%      -$.-,              ",
"            ..,%;,,-.=%      -..-,              ",
"           .=%;;;,,=,,,%      -=;               ",
"          @o.==,;,,+..++%    -$.-,              ",
"         @oo.+,,;,%-.Xo-+%...-..-,.###          ",
"        o@o.-+,%;,%-.oXo.+%,,,-=;,++--....####  ",
"       o@o.-+,%;8,,,,..Xo.,8888-,%%,,+++----..##",
"       ..++,,;8,,.##.,,,,,,+++++++++++---..#####"
};
