/* XPM */
static char *result[] = {
/* columns rows colors chars-per-pixel */
"32 32 250 2 ",
"   c black",
".  c #010100",
"X  c #020101",
"o  c #050201",
"O  c #050202",
"+  c #070403",
"@  c #090403",
"#  c #0B0403",
"$  c #0A0503",
"%  c #0B0503",
"&  c #0C0603",
"*  c #080504",
"=  c #0A0504",
"-  c #0B0604",
";  c #0B0605",
":  c #0C0504",
">  c #0C0605",
",  c #0D0605",
"<  c #0F0604",
"1  c #0E0605",
"2  c #0E0705",
"3  c #0F0705",
"4  c #0D0706",
"5  c #0E0706",
"6  c #0F0807",
"7  c #110705",
"8  c #120705",
"9  c #100805",
"0  c #110805",
"q  c #120805",
"w  c #120905",
"e  c #100806",
"r  c #110806",
"t  c #110906",
"y  c #120806",
"u  c #130906",
"i  c #120907",
"p  c #130907",
"a  c #110A07",
"s  c #140905",
"d  c #140906",
"f  c #150906",
"g  c #140907",
"h  c #160906",
"j  c #150A07",
"k  c #160A07",
"l  c #170A07",
"z  c #180B07",
"x  c #140A08",
"c  c #150A08",
"v  c #140B08",
"b  c #150B09",
"n  c #160B08",
"m  c #190B08",
"M  c #180C08",
"N  c #190D08",
"B  c #190D09",
"V  c #1A0C08",
"C  c #1B0E0B",
"Z  c #1C0C08",
"A  c #1D0D08",
"S  c #1C0D09",
"D  c #1E0E09",
"F  c #1F0E09",
"G  c #1F0E0A",
"H  c #1C0E0C",
"J  c #200F0A",
"K  c #210F0A",
"L  c #22110B",
"P  c #24100B",
"I  c #25110B",
"U  c #26110B",
"Y  c #25110C",
"T  c #27140D",
"R  c #2A120C",
"E  c #2B130D",
"W  c #2C130C",
"Q  c #2D130D",
"!  c #2D140D",
"~  c #32160F",
"^  c #251411",
"/  c #2B1510",
"(  c #341911",
")  c #361F17",
"_  c #391911",
"`  c #381A12",
"'  c #381C14",
"]  c #3D1E15",
"[  c #3F1F16",
"{  c #382019",
"}  c #3D231C",
"|  c #3E241D",
" . c #401C13",
".. c #421D13",
"X. c #441E14",
"o. c #451E14",
"O. c #451F14",
"+. c #451F15",
"@. c #481F15",
"#. c #422117",
"$. c #4B2116",
"%. c #422118",
"&. c #432118",
"*. c #442018",
"=. c #47231A",
"-. c #41251E",
";. c #47261D",
":. c #44271F",
">. c #45271F",
",. c #46271F",
"<. c #48241B",
"1. c #502318",
"2. c #512418",
"3. c #522419",
"4. c #542519",
"5. c #58271A",
"6. c #55291E",
"7. c #562A1F",
"8. c #5C291B",
"9. c #602A1C",
"0. c #612B1D",
"q. c #632C1D",
"w. c #642C1D",
"e. c #662D1E",
"r. c #6A2F1E",
"t. c #552D23",
"y. c #522E26",
"u. c #552F26",
"i. c #533025",
"p. c #543025",
"a. c #602F21",
"s. c #612F21",
"d. c #613022",
"f. c #663022",
"g. c #623225",
"h. c #633225",
"j. c #6B3020",
"k. c #6F3121",
"l. c #6F3220",
"z. c #6D3424",
"x. c #6F3424",
"c. c #6F3525",
"v. c #723221",
"b. c #763423",
"n. c #773523",
"m. c #783523",
"M. c #793622",
"N. c #7A3623",
"B. c #7C3723",
"V. c #7A3624",
"C. c #7D3725",
"Z. c #7F3826",
"A. c #733828",
"S. c #743A2B",
"D. c #793B2A",
"F. c #7F3E2C",
"G. c #753F32",
"H. c #774436",
"J. c #7D4739",
"K. c #833A25",
"L. c #813926",
"P. c #823926",
"I. c #833A27",
"U. c #873C26",
"Y. c #883C27",
"T. c #893C27",
"R. c #843B28",
"E. c #863D29",
"W. c #823F2D",
"Q. c #8B3D29",
"!. c #8B3E28",
"~. c #8D3E29",
"^. c #8E3F28",
"/. c #89402C",
"(. c #914029",
"). c #90402B",
"_. c #92412A",
"`. c #93422A",
"'. c #94422C",
"]. c #9B452E",
"[. c #9E462D",
"{. c #9E462E",
"}. c #844737",
"|. c #8B4430",
" X c #864C3D",
".X c #874D3E",
"XX c #904632",
"oX c #934833",
"OX c #9E4D37",
"+X c #A14730",
"@X c #A24830",
"#X c #A34830",
"$X c #A94B30",
"%X c #A84A31",
"&X c #AB4B32",
"*X c #AD4C33",
"=X c #AC4D33",
"-X c #AF4D33",
";X c #B14E34",
":X c #B34F35",
">X c #B55035",
",X c #B65136",
"<X c #B75136",
"1X c #B85136",
"2X c #BC5337",
"3X c #B1563E",
"4X c #C15539",
"5X c #C0553A",
"6X c #C5573A",
"7X c #C85A3D",
"8X c #CA5C3F",
"9X c #8E5141",
"0X c #A35D4A",
"qX c #BB5B40",
"wX c #B95F46",
"eX c #BA5F46",
"rX c #C15E43",
"tX c #C45E43",
"yX c #CC5D40",
"uX c #C56044",
"iX c #CE6042",
"pX c #C96246",
"aX c #CA6246",
"sX c #CB6347",
"dX c #D26445",
"fX c #D06447",
"gX c #D26447",
"hX c #D36447",
"jX c #D36547",
"kX c #D7694B",
"lX c #D8694B",
"zX c #D86A4B",
"xX c #D8694C",
"cX c #D86A4C",
"vX c #D96B4E",
"bX c #C7715B",
"nX c #CC745D",
"mX c #CE755E",
"MX c #CF765F",
"NX c #DB7155",
"BX c #DC7459",
"VX c #DC765B",
"CX c #DD795F",
"ZX c #DE795F",
"AX c #D37860",
"SX c #DF7D63",
"DX c #DE7F65",
"FX c #DE7E66",
"GX c #DF7F66",
"HX c None",
/* pixels */
"HXHXHXHXHXHXHXHXHXHX- - = * * * * * * * * + HXHXHXHXHXHXHXHXHXHX",
"HXHXHXHXHXHXHXHXHXp rXlXCXGXGXGXGXGXGXGXGXbX> HXHXHXHXHXHXHXHXHX",
"HXHXHXHXHXHXHXHXHXH [ 7.t.u.p.i.i.i.i.i.y.{ a HXHXHXHXHXHXHXHXHX",
"HXHXHXHXHXHXHXHXHXHXHX% R I.E.XXXXXXXXT O HXHXHXHXHXHXHXHXHXHXHX",
"HXHXHXJ HXHXHXHXHXHXHXHX< :X6XjXlXlXlXS HXHXHXHXHXHXHXHXJ HXHXHX",
"HXHX0 P.L HXHXHXHXHXHXHXJ Z.6XiXlXlXlXHXHXHXHXHXHXHXHXI R.3 HXHX",
"HXHXD 5XtXM HXHXHXHXHXHX8 v.6XyXlXlXoXHXHXHXHXHXHXHXS ,XfXN HXHX",
"HXHXd X.7XqXy HXHXHXHXHXy 5.I./.XXXXa.= HXHXHXHXHXk =XgX#., HXHX",
"HXHXHXn 3.8X3X3 C e / &.=.<.;.,.>.>.>.:.} ^ ; 4 q @XgX6.5 HXHXHX",
"HXHXHXHXk q.x.c F.aXlXzXVXGXGXGXGXGXGXGXGXGXAX Xb j.f., HXHXHXHX",
"HXHXHXHXHX@ ' pXlXlXcXZXGXGXGXGXGXGXGXGXGXGXGXGXMX) @ HXHXHXHXHX",
"HXHXHXHXHX= D.W.W.W.}. X X X.XnXnX.X X X X X X X XJ.* HXHXHXHXHX",
"HXHXHXHX2 a.s.s.s.d.h.h.h.h.h.eXwXh.h.h.h.h.h.h.h.h.g.: HXHXHXHX",
"HXHXHXHX+.6X6X6X6XdXlXlXlXlXlXlXlXlXlXlXlXlXlXlXlXlXlX*.HXHXHXHX",
"HXHXHXD F ~ ~ ~ ~ ( ( ( ( ( ( ( ( ( ( ( ( ( ( ( ( ( ( G g HXHXHX",
"HXHXHXw M.U.U.U.!.{.{.{.{.{.{.{.{.{.{.{.{.{.{.{.{.{.{.Q.1 HXHXHX",
"HXHXHX< [.$X$XO.l V V V C.4XK V V V Z -X'.V V V V _ 6X>X# HXHXHX",
"HXHXHXs ^.$X$XW K.1X1Xw.e.2Xu 1X1X1X! +XL.$.1X1X*Xz 6X#X1 HXHXHX",
"HXHXHXh r.$X$XW T.;Xb. .e.2Xf 6X].b.A +XL.1.6XI.k.z 6XV.& HXHXHX",
"HXHXHXHXQ $X$XW Y.n.U 8.+X2Xf 6Xo...0.2XL.1.6X% 8.m.6XE HXHXHXHX",
"HXHXHXHXr B.$XW Y.l.2.6X6X2Xf 6Xo.~.6X6XL.1.6X: 6X6X).$ HXHXHXHX",
"HXHXHXHXHXX   o (.N..       P 6X4.        9.6Xm     . HXHXHXHXHX",
"HXHXHXHXHX0 .._._._.`.%X&X&X&X&X&X&X&X&X&X&X&X&X&X@.$ HXHXHXHXHX",
"HXHXHXHXHXHXs 7 I I I U Y Y Y Y Y Y Y Y Y Y Y Y 9 > HXHXHXHXHXHX",
"HXHXHXHXHXHXHXj <X6X6X6XhXlXlXlXlXlXlXlXlXlXlXsXy HXHXHXHXHXHXHX",
"HXHXHXHXHXHXHXt ` z.z.z.c.S.S.S.S.S.S.S.S.S.S.' - HXHXHXHXHXHXHX",
"HXHXHXHXHXHXHXHXv ] A.A.A.G.H.H.H.H.H.H.H.H.| 4 HXHXHXHXHXHXHXHX",
"HXHXHXHXHXHXHXHXHXx uXlXlXvXDXGXGXGXGXGXGXmX6 HXHXHXHXHXHXHXHXHX",
"HXHXHXHXHXHXHXHXHXHX%.lXlXlXBXGXGXGXGXGXGX-.HXHXHXHXHXHXHXHXHXHX",
"HXHXHXHXHXHXHXHXHXHXB |.lXlXxXSXGXGXGXGX9X4 HXHXHXHXHXHXHXHXHXHX",
"HXHXHXHXHXHXHXHXHXHXHXi OXkXlXNXGXGXFX0X> HXHXHXHXHXHXHXHXHXHXHX",
"HXHXHXHXHXHXHXHXHXHXHXHXv = - - * * + 4 HXHXHXHXHXHXHXHXHXHXHXHX"
};
